<?xml version="1.0" encoding="utf-8"?>
<!-- Generator: Adobe Illustrator 19.0.0, SVG Export Plug-In . SVG Version: 6.00 Build 0)  -->
<svg version="1.1" xmlns="http://www.w3.org/2000/svg" xmlns:xlink="http://www.w3.org/1999/xlink" x="0px" y="0px"
	 viewBox="0 0 1400 980" style="enable-background:new 0 0 1400 980;" xml:space="preserve">
<style type="text/css">
	.st0{fill:#404041;}
	.st1{fill:#A1B401;}
	.st2{fill:#7A8F04;}
	.st3{fill:#FFFFFF;}
	.st4{fill:#FFC801;}
	.st5{fill:#EFAF00;}
	.st6{fill:#FB7665;}
	.st7{fill:#E55F55;}
	.st8{fill:#56D6D2;}
	.st9{fill:#37AEB0;}
</style>
<g id="Layer_2">
	<rect class="st0" width="1400" height="980"/>
</g>
<g id="Layer_1">
	<g>
		<g>
			<circle class="st1" cx="700" cy="291" r="163.5"/>
			<path class="st2" d="M745.9,447.9c48.7-14.2,88-50.4,106.3-97.2L741.4,239.9l-72.8-26.7l-29.5-12l-8.9-8.9l-6.1,4.2l-5.9-5.9
				l-5.8,15.4l-15.8,41.5l98.9,98.9l-14.8,3.9l12.9,12.9l-35.1-2.8L745.9,447.9z"/>
			<g>
				<path class="st3" d="M633,196.6v33h14c0,0,13.1,27.5,20.2,35c7,7.6,33.1,27.5,33.1,27.5s5.5,2.3,4.2-6.2
					c-1.4-8.6-12.7-21-14.2-23.4c-1.6-2.3-2.7-6.8-0.4-9.5c2.3-2.7,11.1-9.3,12.9-9.3c1.8,0,24.5,7.6,27.8,10.7
					c3.3,3.1,2.9,3.1,2.7,10.1c-0.2,7-3.5,22,0.1,24c3.6,1.9,12.1-0.4,13.9-27.6c0,0,3.3-14-8-22.6c-11.3-8.6-50.6-41.6-75.2-41.6
					H633z"/>
				<path class="st3" d="M721.3,252.3c0,0,2.9,1.2,5.5,2.6c5.7,3,5.8,3.9,3.9,18.4c-1.7,13.7-4.1,14.1-6.6,13.4
					c-2.6-0.7-3.3-3.4-1.9-18.3C723.7,253.5,723.3,255,721.3,252.3z"/>
				<path class="st3" d="M712.9,248.8c0,0,7.6,4,7.8,6.9c0.2,2.8,0.2,27.7-4.5,27.4c-4.7-0.3-2.7-13.2-1.8-24.8
					C714.5,258.3,715.6,250.1,712.9,248.8z"/>
				<rect x="620.7" y="192.4" class="st3" width="9.5" height="46.5"/>
				<rect x="596.6" y="190.6" class="st3" width="21.6" height="56.9"/>
				<path class="st3" d="M727,359c0,0,2.5-2.4-10.8-2.7c0,0-27.2-1.5-35.5-5.8c0,0-1.8-7.4,8.9-6.4c10.7,1,18.8,2.9,27.9,2.8
					c9.1-0.1,27.2-5.1,39.4-4.7c12.3,0.4,20.9,7.7,29.6,21.9c8.8,14.2,16.8,27.3,16.8,27.3H771c0,0,0-9.6-7.2-14
					c-7.2-4.4-18.4-6.6-38.4-4.8c-20,1.8-43.6,3.3-50.4,0.9c-6.8-2.3-23.8-19.5-27.6-25.3c0,0,3.9-10.3,13.4-0.8
					c9.5,9.5,11.9,12.3,16.4,12.5c4.5,0.2,11.9-4.3,16.2-4.1c4.3,0.2,9.1,2.1,13,2.4C710.4,358.5,727,359,727,359z"/>
				<path class="st3" d="M722.6,304.5c0,0,0.6-8.1,10.6-8.7c11-0.7,18.4,17.6,6.3,28.3c-12.8,11.2-24.2,11.5-24.2,11.5
					s6.4-8.5-1-11.5c-10.7-4.4-15.1-21.8-2.7-25C718.4,297.2,722.6,304.5,722.6,304.5z"/>
			</g>
		</g>
		<g>
			<circle class="st4" cx="260.9" cy="689" r="163.5"/>
			<path class="st5" d="M306.7,845.9c48.7-14.2,88-50.4,106.3-97.2L302.3,637.9l-72.8-26.7l-29.5-12l-8.9-8.9l-6.1,4.2l-5.9-5.9
				l-5.8,15.4l-15.8,41.5l98.9,98.9l-14.8,3.9l12.9,12.9l-35.1-2.8L306.7,845.9z"/>
			<g>
				<path class="st3" d="M193.9,594.6v33h14c0,0,13.1,27.5,20.2,35c7,7.6,33.1,27.5,33.1,27.5s5.5,2.3,4.2-6.2
					c-1.4-8.6-12.7-21-14.2-23.4c-1.6-2.3-2.7-6.8-0.4-9.5c2.3-2.7,11.1-9.3,12.9-9.3c1.8,0,24.5,7.6,27.8,10.7
					c3.3,3.1,2.9,3.1,2.7,10.1c-0.2,7-3.5,22,0.1,23.9c3.6,1.9,12.1-0.4,13.9-27.6c0,0,3.3-14-8-22.6c-11.3-8.6-50.6-41.6-75.2-41.6
					H193.9z"/>
				<path class="st3" d="M282.2,650.4c0,0,2.9,1.2,5.5,2.6c5.7,3,5.8,3.9,3.9,18.4c-1.7,13.7-4.1,14.1-6.6,13.4
					c-2.6-0.7-3.3-3.4-1.9-18.3C284.5,651.5,284.2,653.1,282.2,650.4z"/>
				<path class="st3" d="M273.8,646.9c0,0,7.6,4,7.8,6.9c0.2,2.8,0.2,27.7-4.5,27.4c-4.7-0.3-2.7-13.2-1.8-24.8
					C275.3,656.3,276.4,648.1,273.8,646.9z"/>
				<rect x="181.6" y="590.4" class="st3" width="9.5" height="46.5"/>
				<rect x="157.4" y="588.6" class="st3" width="21.6" height="56.9"/>
				<path class="st3" d="M287.9,757.1c0,0,2.5-2.4-10.8-2.7c0,0-27.2-1.5-35.5-5.8c0,0-1.8-7.4,8.9-6.4c10.7,1,18.8,2.9,27.9,2.8
					c9.1-0.1,27.2-5.1,39.4-4.7c12.3,0.4,20.9,7.7,29.6,21.9c8.8,14.2,16.8,27.3,16.8,27.3h-32.4c0,0,0-9.6-7.2-14
					c-7.2-4.4-18.4-6.6-38.4-4.8c-20,1.8-43.6,3.3-50.4,0.9c-6.8-2.3-23.8-19.5-27.6-25.3c0,0,3.9-10.3,13.4-0.8
					c9.5,9.5,11.9,12.3,16.4,12.5c4.5,0.2,11.9-4.3,16.2-4.1c4.3,0.2,9.1,2.1,13,2.4C271.3,756.5,287.9,757.1,287.9,757.1z"/>
				<path class="st3" d="M284,691.3c0,0,3.1,10.4-2.2,17.1c-5.3,6.7-15.9,8.4-12.8,21.3c1.9,7.8,20.4,14,29.1-0.9
					C302.2,721.9,299.7,705,284,691.3z"/>
			</g>
		</g>
		<g>
			<circle class="st6" cx="700" cy="689" r="163.5"/>
			<path class="st7" d="M745.9,845.9c48.7-14.2,88-50.4,106.3-97.2L741.4,637.9l-72.8-26.7l-29.5-12l-8.9-8.9l-6.1,4.2l-5.9-5.9
				l-5.8,15.4l-15.8,41.5l98.9,98.9l-14.8,3.9l12.9,12.9l-35.1-2.8L745.9,845.9z"/>
			<g>
				<g>
					<rect x="716.8" y="693.1" class="st3" width="13.3" height="41.2"/>
					<rect x="702.9" y="707" class="st3" width="41.2" height="13.3"/>
				</g>
				<path class="st3" d="M633,594.6v33h14c0,0,13.1,27.5,20.2,35c7,7.6,33.1,27.5,33.1,27.5s5.5,2.3,4.2-6.2
					c-1.4-8.6-12.7-21-14.2-23.4c-1.6-2.3-2.7-6.8-0.4-9.5c2.3-2.7,11.1-9.3,12.9-9.3c1.8,0,24.5,7.6,27.8,10.7
					c3.3,3.1,2.9,3.1,2.7,10.1c-0.2,7-3.5,22,0.1,23.9c3.6,1.9,12.1-0.4,13.9-27.6c0,0,3.3-14-8-22.6c-11.3-8.6-50.6-41.6-75.2-41.6
					H633z"/>
				<path class="st3" d="M721.3,650.4c0,0,2.9,1.2,5.5,2.6c5.7,3,5.8,3.9,3.9,18.4c-1.7,13.7-4.1,14.1-6.6,13.4
					c-2.6-0.7-3.3-3.4-1.9-18.3C723.7,651.5,723.3,653.1,721.3,650.4z"/>
				<path class="st3" d="M712.9,646.9c0,0,7.6,4,7.8,6.9c0.2,2.8,0.2,27.7-4.5,27.4c-4.7-0.3-2.7-13.2-1.8-24.8
					C714.5,656.3,715.6,648.1,712.9,646.9z"/>
				<rect x="620.7" y="590.4" class="st3" width="9.5" height="46.5"/>
				<rect x="596.6" y="588.6" class="st3" width="21.6" height="56.9"/>
				<path class="st3" d="M727,757.1c0,0,2.5-2.4-10.8-2.7c0,0-27.2-1.5-35.5-5.8c0,0-1.8-7.4,8.9-6.4c10.7,1,18.8,2.9,27.9,2.8
					c9.1-0.1,27.2-5.1,39.4-4.7c12.3,0.4,20.9,7.7,29.6,21.9c8.8,14.2,16.8,27.3,16.8,27.3H771c0,0,0-9.6-7.2-14
					c-7.2-4.4-18.4-6.6-38.4-4.8c-20,1.8-43.6,3.3-50.4,0.9c-6.8-2.3-23.8-19.5-27.6-25.3c0,0,3.9-10.3,13.4-0.8
					c9.5,9.5,11.9,12.3,16.4,12.5c4.5,0.2,11.9-4.3,16.2-4.1c4.3,0.2,9.1,2.1,13,2.4C710.4,756.5,727,757.1,727,757.1z"/>
			</g>
		</g>
		<g>
			<circle class="st1" cx="1139.1" cy="291" r="163.5"/>
			<path class="st2" d="M1185,447.9c48.7-14.2,88-50.4,106.3-97.2l-110.8-110.8l-72.8-26.7l-29.5-12l-8.9-8.9l-6.1,4.2l-5.9-5.9
				l-5.8,15.4l-15.8,41.5l98.9,98.9l-14.8,3.9l12.9,12.9l-35.1-2.8L1185,447.9z"/>
			<g>
				<path class="st3" d="M1072.1,196.6v33h14c0,0,13.1,27.5,20.2,35c7,7.6,33.1,27.5,33.1,27.5s5.5,2.3,4.2-6.2
					c-1.4-8.6-12.7-21-14.2-23.4c-1.6-2.3-2.7-6.8-0.4-9.5c2.3-2.7,11.1-9.3,12.9-9.3c1.8,0,24.5,7.6,27.8,10.7
					c3.3,3.1,2.9,3.1,2.7,10.1c-0.2,7-3.5,22,0.1,24c3.6,1.9,12.1-0.4,13.9-27.6c0,0,3.3-14-8-22.6c-11.3-8.6-50.6-41.6-75.2-41.6
					H1072.1z"/>
				<path class="st3" d="M1160.5,252.3c0,0,2.9,1.2,5.5,2.6c5.7,3,5.8,3.9,3.9,18.4c-1.7,13.7-4.1,14.1-6.6,13.4
					c-2.6-0.7-3.3-3.4-1.9-18.3C1162.8,253.5,1162.5,255,1160.5,252.3z"/>
				<path class="st3" d="M1152.1,248.8c0,0,7.6,4,7.8,6.9c0.2,2.8,0.2,27.7-4.5,27.4c-4.7-0.3-2.7-13.2-1.8-24.8
					C1153.6,258.3,1154.7,250.1,1152.1,248.8z"/>
				<rect x="1059.9" y="192.4" class="st3" width="9.5" height="46.5"/>
				<rect x="1035.7" y="190.6" class="st3" width="21.6" height="56.9"/>
				<path class="st3" d="M1166.2,359c0,0,2.5-2.4-10.8-2.7c0,0-27.2-1.5-35.5-5.8c0,0-1.8-7.4,8.9-6.4c10.7,1,18.8,2.9,27.9,2.8
					c9.1-0.1,27.2-5.1,39.4-4.7c12.3,0.4,20.9,7.7,29.6,21.9c8.8,14.2,16.8,27.3,16.8,27.3h-32.4c0,0,0-9.6-7.2-14
					c-7.2-4.4-18.4-6.6-38.4-4.8c-20,1.8-43.6,3.3-50.4,0.9c-6.8-2.3-23.8-19.5-27.6-25.3c0,0,3.9-10.3,13.4-0.8
					c9.5,9.5,11.9,12.3,16.4,12.5c4.5,0.2,11.9-4.3,16.2-4.1c4.3,0.2,9.1,2.1,13,2.4C1149.5,358.5,1166.2,359,1166.2,359z"/>
			</g>
		</g>
		<g>
			<circle class="st6" cx="1139.1" cy="689" r="163.5"/>
			<path class="st7" d="M1185,845.9c48.7-14.2,88-50.4,106.3-97.2l-110.8-110.8l-72.8-26.7l-29.5-12l-8.9-8.9l-6.1,4.2l-5.9-5.9
				l-5.8,15.4l-15.8,41.5l98.9,98.9l-14.8,3.9l12.9,12.9l-35.1-2.8L1185,845.9z"/>
			<g>
				<g>
					<rect x="1102.4" y="700.3" class="st3" width="109.9" height="31.3"/>
				</g>
				<polygon class="st7" points="1106.5,706 1212.3,706 1212.3,707.3 				"/>
				<polygon class="st7" points="1117.5,713 1212.3,713 1212.3,714.2 				"/>
				<polygon class="st7" points="1198.5,720.5 1102.4,720.5 1102.4,721.8 				"/>
				<polygon class="st7" points="1177.5,727.1 1102.4,726.5 1102.4,727.8 				"/>
				<g>
					<rect x="1143.5" y="699.6" class="st7" width="27.8" height="32.9"/>
				</g>
				<path class="st3" d="M1072.1,594.6v33h14c0,0,13.1,27.5,20.2,35c7,7.6,33.1,27.5,33.1,27.5s5.5,2.3,4.2-6.2
					c-1.4-8.6-12.7-21-14.2-23.4c-1.6-2.3-2.7-6.8-0.4-9.5c2.3-2.7,11.1-9.3,12.9-9.3c1.8,0,24.5,7.6,27.8,10.7
					c3.3,3.1,2.9,3.1,2.7,10.1c-0.2,7-3.5,22,0.1,23.9c3.6,1.9,12.1-0.4,13.9-27.6c0,0,3.3-14-8-22.6c-11.3-8.6-50.6-41.6-75.2-41.6
					H1072.1z"/>
				<path class="st3" d="M1160.5,650.4c0,0,2.9,1.2,5.5,2.6c5.7,3,5.8,3.9,3.9,18.4c-1.7,13.7-4.1,14.1-6.6,13.4
					c-2.6-0.7-3.3-3.4-1.9-18.3C1162.8,651.5,1162.5,653.1,1160.5,650.4z"/>
				<path class="st3" d="M1152.1,646.9c0,0,7.6,4,7.8,6.9c0.2,2.8,0.2,27.7-4.5,27.4c-4.7-0.3-2.7-13.2-1.8-24.8
					C1153.6,656.3,1154.7,648.1,1152.1,646.9z"/>
				<rect x="1059.9" y="590.4" class="st3" width="9.5" height="46.5"/>
				<rect x="1035.7" y="588.6" class="st3" width="21.6" height="56.9"/>
				<path class="st3" d="M1166.2,757.1c0,0,2.5-2.4-10.8-2.7c0,0-27.2-1.5-35.5-5.8c0,0-1.8-7.4,8.9-6.4c10.7,1,18.8,2.9,27.9,2.8
					c9.1-0.1,27.2-5.1,39.4-4.7c12.3,0.4,20.9,7.7,29.6,21.9c8.8,14.2,16.8,27.3,16.8,27.3h-32.4c0,0,0-9.6-7.2-14
					c-7.2-4.4-18.4-6.6-38.4-4.8c-20,1.8-43.6,3.3-50.4,0.9c-6.8-2.3-23.8-19.5-27.6-25.3c0,0,3.9-10.3,13.4-0.8
					c9.5,9.5,11.9,12.3,16.4,12.5c4.5,0.2,11.9-4.3,16.2-4.1c4.3,0.2,9.1,2.1,13,2.4C1149.5,756.5,1166.2,757.1,1166.2,757.1z"/>
			</g>
		</g>
		<g>
			<circle class="st8" cx="260.9" cy="291" r="163.5"/>
			<path class="st9" d="M306.7,447.9c48.7-14.2,88-50.4,106.3-97.2L302.3,239.9l-72.8-26.7l-29.5-12l-8.9-8.9l-6.1,4.2l-5.9-5.9
				l-5.8,15.4l-15.8,41.5l98.9,98.9l-14.8,3.9l12.9,12.9l-35.1-2.8L306.7,447.9z"/>
			<g>
				<path class="st3" d="M193.9,196.6v33h14c0,0,13.1,27.5,20.2,35c7,7.6,33.1,27.5,33.1,27.5s5.5,2.3,4.2-6.2
					c-1.4-8.6-12.7-21-14.2-23.4c-1.6-2.3-2.7-6.8-0.4-9.5c2.3-2.7,11.1-9.3,12.9-9.3c1.8,0,24.5,7.6,27.8,10.7
					c3.3,3.1,2.9,3.1,2.7,10.1c-0.2,7-3.5,22,0.1,24c3.6,1.9,12.1-0.4,13.9-27.6c0,0,3.3-14-8-22.6c-11.3-8.6-50.6-41.6-75.2-41.6
					H193.9z"/>
				<path class="st3" d="M282.2,252.3c0,0,2.9,1.2,5.5,2.6c5.7,3,5.8,3.9,3.9,18.4c-1.7,13.7-4.1,14.1-6.6,13.4
					c-2.6-0.7-3.3-3.4-1.9-18.3C284.5,253.5,284.2,255,282.2,252.3z"/>
				<path class="st3" d="M273.8,248.8c0,0,7.6,4,7.8,6.9c0.2,2.8,0.2,27.7-4.5,27.4c-4.7-0.3-2.7-13.2-1.8-24.8
					C275.3,258.3,276.4,250.1,273.8,248.8z"/>
				<rect x="181.6" y="192.4" class="st3" width="9.5" height="46.5"/>
				<rect x="157.4" y="190.6" class="st3" width="21.6" height="56.9"/>
				<path class="st3" d="M287.9,359c0,0,2.5-2.4-10.8-2.7c0,0-27.2-1.5-35.5-5.8c0,0-1.8-7.4,8.9-6.4c10.7,1,18.8,2.9,27.9,2.8
					c9.1-0.1,27.2-5.1,39.4-4.7c12.3,0.4,20.9,7.7,29.6,21.9c8.8,14.2,16.8,27.3,16.8,27.3h-32.4c0,0,0-9.6-7.2-14
					c-7.2-4.4-18.4-6.6-38.4-4.8c-20,1.8-43.6,3.3-50.4,0.9c-6.8-2.3-23.8-19.5-27.6-25.3c0,0,3.9-10.3,13.4-0.8
					c9.5,9.5,11.9,12.3,16.4,12.5c4.5,0.2,11.9-4.3,16.2-4.1c4.3,0.2,9.1,2.1,13,2.4C271.3,358.5,287.9,359,287.9,359z"/>
				<g>
					<path class="st3" d="M285.1,311.9c3,1.2,5.3,2.6,7,4.5c1.9,2.1,2.9,4.6,2.9,7.2c0,2.6-1.1,5.3-3,7.3c-1.8,2.1-4.3,3.3-7,3.7
						v4.8h-3.7v-4.8c-1.3-0.1-2.7-0.3-4.3-0.8c-3.3-1.1-6.3-2.9-8.8-5.6l5.4-5.1c2.7,2.9,5.6,3.8,7.7,4.1v-8.9h-0.1l-0.3-0.1
						c-1.2-0.3-3.5-0.9-5.6-2.3c-3-1.9-4.6-4.8-4.7-8.3c-0.2-3,0.8-5.5,2.7-7.5c2.5-2.6,5.9-3.5,8-3.6v-4.7h3.7v4.9
						c3.5,0.6,5.9,2.1,8,3.5l1.2,0.8l-3.8,6.3l-1.3-0.8c-1.5-0.9-2.6-1.7-4.1-2.1V311.9z M281.5,304c-0.8,0.2-2,0.5-2.6,1.3
						c-0.3,0.3-0.7,0.9-0.6,2.1c0.1,1.6,1,2.6,3.3,3.4V304z M285.1,327.1c1.9-0.7,2.5-2.7,2.5-3.5c0-1.3-0.9-2.5-2.5-3.5V327.1z"/>
				</g>
			</g>
		</g>
	</g>
	<circle class="st3" cx="1163.5" cy="319.3" r="17.3"/>
	<g>
		<circle class="st1" cx="1163.5" cy="319.3" r="12.5"/>
		<circle class="st3" cx="1163.5" cy="319.3" r="10.3"/>
	</g>
	<g>
		<g>
			<rect x="1163.1" y="301.7" class="st1" width="0.8" height="5.5"/>
			<rect x="1163.1" y="331.2" class="st1" width="0.8" height="5.5"/>
		</g>
		<g>
			<rect x="1175.5" y="318.9" class="st1" width="5.5" height="0.8"/>
			<rect x="1146" y="318.9" class="st1" width="5.5" height="0.8"/>
		</g>
		<g>
			
				<rect x="1173.6" y="326.9" transform="matrix(-0.7071 0.7071 -0.7071 -0.7071 2237.1682 -267.2674)" class="st1" width="0.8" height="5.5"/>
			
				<rect x="1152.7" y="306.1" transform="matrix(-0.7071 0.7071 -0.7071 -0.7071 2186.8086 -288.1271)" class="st1" width="0.7" height="5.5"/>
		</g>
		<g>
			
				<rect x="1152.7" y="326.9" transform="matrix(-0.7071 -0.7071 0.7071 -0.7071 1735.2937 1378.1801)" class="st1" width="0.8" height="5.5"/>
			
				<rect x="1173.6" y="306.1" transform="matrix(-0.7071 -0.7071 0.7071 -0.7071 1785.6534 1357.3206)" class="st1" width="0.7" height="5.5"/>
		</g>
		<g>
			
				<rect x="1149.4" y="321.8" transform="matrix(-0.3611 -0.9325 0.9325 -0.3611 1262.1941 1513.9867)" class="st1" width="0.7" height="5.5"/>
			
				<rect x="1176.9" y="311.2" transform="matrix(-0.3612 -0.9325 0.9325 -0.3612 1309.7213 1525.1234)" class="st1" width="0.8" height="5.5"/>
		</g>
		<g>
			
				<rect x="1149.6" y="310.5" transform="matrix(0.404 -0.9148 0.9148 0.404 398.8211 1238.7313)" class="st1" width="0.8" height="5.5"/>
			
				<rect x="1176.6" y="322.5" transform="matrix(0.404 -0.9148 0.9148 0.404 404.0018 1270.52)" class="st1" width="0.8" height="5.5"/>
		</g>
		<g>
			
				<rect x="1157.8" y="302.7" transform="matrix(0.9325 -0.3611 0.3611 0.9325 -32.18 438.7932)" class="st1" width="0.7" height="5.5"/>
			
				<rect x="1168.5" y="330.3" transform="matrix(0.9325 -0.3612 0.3612 0.9325 -41.3801 444.6461)" class="st1" width="0.8" height="5.5"/>
		</g>
		<g>
			
				<rect x="1169.1" y="303" transform="matrix(0.9148 0.404 -0.404 0.9148 223.2078 -446.3841)" class="st1" width="0.8" height="5.5"/>
			
				<rect x="1157.2" y="330" transform="matrix(0.9148 0.404 -0.404 0.9148 233.0935 -439.269)" class="st1" width="0.8" height="5.5"/>
		</g>
	</g>
</g>
</svg>
