<?xml version="1.0" encoding="UTF-8" standalone="no"?>
<svg
   xmlns:dc="http://purl.org/dc/elements/1.1/"
   xmlns:cc="http://creativecommons.org/ns#"
   xmlns:rdf="http://www.w3.org/1999/02/22-rdf-syntax-ns#"
   xmlns:svg="http://www.w3.org/2000/svg"
   xmlns="http://www.w3.org/2000/svg"
   xmlns:sodipodi="http://sodipodi.sourceforge.net/DTD/sodipodi-0.dtd"
   xmlns:inkscape="http://www.inkscape.org/namespaces/inkscape"
   width="113.00172mm"
   height="64.196014mm"
   viewBox="0 0 113.00172 64.196014"
   version="1.1"
   id="svg8"
   inkscape:version="1.0.2 (e86c8708, 2021-01-15)"
   sodipodi:docname="logo_8ball_bubble_fill.svg">
  <defs
     id="defs2">
    <clipPath
       clipPathUnits="userSpaceOnUse"
       id="clipPath852">
      <g
         inkscape:label="Clip"
         id="use854"
         style="fill:none;fill-opacity:1;stroke:#000000;stroke-opacity:1">
        <circle
           style="fill:none;fill-opacity:1;stroke:#000000;stroke-width:0.499999;stroke-opacity:1"
           id="circle882"
           cx="45.618992"
           cy="111.5672"
           r="15" />
        <circle
           style="fill:none;fill-opacity:1;stroke:#000000;stroke-width:0.499999;stroke-opacity:1"
           id="circle884"
           cx="45.618992"
           cy="111.5672"
           r="10" />
        <text
           xml:space="preserve"
           style="font-size:6.89908px;line-height:1.25;font-family:'Artefak Clean Typeface';-inkscape-font-specification:'Artefak Clean Typeface';fill:none;fill-opacity:1;stroke:#000000;stroke-width:0.172476;stroke-opacity:1"
           x="32.556591"
           y="149.15984"
           id="text888"
           transform="scale(1.25767,0.79512112)"><tspan
             sodipodi:role="line"
             id="tspan886"
             x="32.556591"
             y="149.15984"
             style="font-size:27.8261px;fill:none;fill-opacity:1;stroke:#000000;stroke-width:0.172476;stroke-opacity:1">8</tspan></text>
      </g>
    </clipPath>
  </defs>
  <sodipodi:namedview
     id="base"
     pagecolor="#ffffff"
     bordercolor="#666666"
     borderopacity="1.0"
     inkscape:pageopacity="0.0"
     inkscape:pageshadow="2"
     inkscape:zoom="1.1810887"
     inkscape:cx="301.31111"
     inkscape:cy="105.32665"
     inkscape:document-units="mm"
     inkscape:current-layer="layer1"
     inkscape:document-rotation="0"
     showgrid="false"
     inkscape:window-width="1440"
     inkscape:window-height="847"
     inkscape:window-x="276"
     inkscape:window-y="25"
     inkscape:window-maximized="0"
     inkscape:snap-global="true"
     inkscape:snap-bbox="true"
     inkscape:bbox-nodes="false"
     inkscape:snap-bbox-edge-midpoints="true"
     inkscape:snap-bbox-midpoints="true" />
  <metadata
     id="metadata5">
    <rdf:RDF>
      <cc:Work
         rdf:about="">
        <dc:format>image/svg+xml</dc:format>
        <dc:type
           rdf:resource="http://purl.org/dc/dcmitype/StillImage" />
        <dc:title />
      </cc:Work>
    </rdf:RDF>
  </metadata>
  <g
     inkscape:label="Layer 1"
     inkscape:groupmode="layer"
     id="layer1"
     transform="translate(-4.6995112,-48.985749)">
    <g
       id="g2122">
      <path
         style="fill:#000000;stroke:#b3b3b3;stroke-width:0.0846677"
         d="m 84.837004,49.02964 c -9.791523,-0.0858 -19.260754,5.108069 -25.051345,12.900198 -2.490393,-1.556885 -5.747178,-1.685664 -8.465807,-0.742054 -3.12162,-0.828652 -6.670151,-1.07708 -9.676463,0.275645 -0.969801,1.000886 -2.09296,-0.321815 -3.236862,-0.368402 C 34.327853,60.218659 29.717055,60.563148 26.225194,63.029794 22.416173,59.984476 17.240683,60.746232 12.712555,60.787617 9.9587931,60.700998 7.3019737,62.109873 5.9219507,64.510403 4.2951495,67.674285 4.9317809,71.39 4.7418624,74.815594 c 0.1018271,6.859951 -0.1408771,13.739031 0.3010861,20.586328 0.5802336,3.513873 4.1606463,5.954828 7.6121845,5.912808 4.561327,0.38829 9.557241,0.43237 13.508368,-2.223535 3.432491,2.489175 8.068491,2.796065 12.103453,1.910705 0.953778,-0.1055 1.9059,-0.90457 2.766952,-0.85888 2.45292,1.47114 5.58528,1.65954 8.243982,0.73418 2.943895,0.76342 6.227043,1.0436 9.128234,-0.0223 0.673962,-0.13101 1.417021,-1.305354 1.797153,-0.23941 7.039774,9.2598 19.395215,14.27928 30.872411,11.96208 9.240354,-1.50536 17.682674,-7.26564 22.260414,-15.460071 3.19155,-5.490636 4.69936,-11.903636 4.24275,-18.242028 C 116.98772,64.945503 105.96787,52.347906 92.336021,49.627986 89.877877,49.084456 87.344886,49.01583 84.837004,49.02964 Z"
         id="path860" />
      <path
         id="path929"
         style="fill:#b3b3b3;fill-opacity:1;stroke:none;stroke-width:0.1;stroke-miterlimit:4;stroke-dasharray:none;stroke-opacity:1"
         d="m 85.446384,52.195231 c -8.073519,-0.04964 -16.031797,3.569434 -21.369236,9.613366 -1.611067,1.772143 -2.9733,3.752504 -4.070554,5.870443 -0.258143,-1.837706 -1.93366,-3.331533 -3.695898,-3.752743 -1.670204,-0.263322 -3.574809,-0.123038 -4.905127,1.018026 -1.877811,-1.530067 -4.472543,-1.048967 -6.705017,-1.100708 l -0.918808,0.151929 c -0.955821,0.453012 -1.858357,1.186278 -2.447396,2.091862 -0.04321,-0.01182 -0.08602,-0.02546 -0.129707,-0.03566 -1.735643,-1.55922 -4.081835,-2.209896 -6.383073,-2.069641 h -0.147277 -0.144696 c -1.950993,-0.05549 -3.964189,0.150581 -5.643582,1.235583 -1.00091,0.545054 -1.956183,1.282264 -2.718697,2.165243 -1.70824,-2.063379 -4.218644,-3.489964 -6.940144,-3.348116 -1.66213,-0.03536 -3.324779,-0.05226 -4.987293,-0.05116 -1.722088,-0.04944 -3.715684,-0.0594 -4.9139117,1.405599 -1.7649886,1.797967 -1.2292216,4.508313 -1.3632243,6.779948 0.020185,7.387367 -0.1196058,14.780941 0.1286744,22.164539 0.2164034,2.34238 2.6060736,3.868107 4.8343306,3.775479 2.809454,0.09174 5.666336,0.231315 8.442378,-0.280603 1.823863,-0.59046 3.637616,-1.64855 4.895309,-3.134691 0.318095,0.380283 0.654087,0.742968 0.992704,1.08572 1.723899,1.692273 4.13959,2.482538 6.529834,2.380218 2.334731,0.180171 4.71469,-0.301043 6.678144,-1.61644 0.305758,-0.199035 0.669875,-0.288515 1.032497,-0.382405 0.91009,1.245119 2.460832,2.065967 3.998722,2.011762 1.3487,0.07744 2.79836,-0.169457 3.804936,-1.142566 1.450263,1.651675 3.791913,1.026914 5.720064,1.145151 1.544212,0.189659 3.008016,-0.508418 3.958413,-1.709973 0.63995,-0.609978 0.919104,-1.3512 1.035079,-2.145606 3.253391,6.223513 8.787916,11.250343 15.406811,13.683923 9.980293,3.89243 22.023822,1.4983 29.812651,-5.8384 7.60882,-6.932544 10.90313,-18.128732 8.36693,-28.089765 C 111.24378,64.301456 103.41534,56.069569 93.7296,53.324361 91.043804,52.538984 88.242914,52.17504 85.446384,52.195231 Z" />
      <text
         xml:space="preserve"
         style="font-size:43.0187px;line-height:1.25;font-family:'Artefak Clean Typeface';-inkscape-font-specification:'Artefak Clean Typeface';fill:#000000;fill-opacity:1;stroke:#000000;stroke-width:0.423412;stroke-miterlimit:4;stroke-dasharray:none;stroke-opacity:1"
         x="11.40442"
         y="94.740257"
         id="text835"><tspan
           sodipodi:role="line"
           id="tspan833"
           x="11.40442"
           y="94.740257"
           style="font-weight:normal;font-size:43.0187px;fill:#000000;fill-opacity:1;stroke:#000000;stroke-width:0.423412;stroke-miterlimit:4;stroke-dasharray:none;stroke-opacity:1">don</tspan></text>
      <circle
         style="fill:#000000;fill-opacity:1;stroke:#000000;stroke-width:0.423412;stroke-miterlimit:4;stroke-dasharray:none;stroke-opacity:1"
         id="path1452"
         cx="85.576271"
         cy="81.023842"
         r="25.404736" />
      <circle
         style="fill:#ffffff;fill-opacity:1;stroke:#000000;stroke-width:0.423412;stroke-miterlimit:4;stroke-dasharray:none;stroke-opacity:1"
         id="path1456"
         cx="85.576271"
         cy="81.023842"
         r="16.936491" />
      <text
         xml:space="preserve"
         style="font-size:11.6846px;line-height:1.25;font-family:'Artefak Clean Typeface';-inkscape-font-specification:'Artefak Clean Typeface';fill:#000000;fill-opacity:1;stroke:#000000;stroke-width:0.423412;stroke-miterlimit:4;stroke-dasharray:none;stroke-opacity:1"
         x="61.749844"
         y="116.88177"
         id="text934"
         transform="scale(1.25767,0.79512113)"><tspan
           sodipodi:role="line"
           id="tspan932"
           x="61.749844"
           y="116.88177"
           style="font-size:47.1276px;fill:#000000;fill-opacity:1;stroke:#000000;stroke-width:0.423412;stroke-miterlimit:4;stroke-dasharray:none;stroke-opacity:1">8</tspan></text>
    </g>
  </g>
</svg>
