<?xml version="1.0" encoding="UTF-8" standalone="no"?>
<svg
   xmlns:dc="http://purl.org/dc/elements/1.1/"
   xmlns:cc="http://creativecommons.org/ns#"
   xmlns:rdf="http://www.w3.org/1999/02/22-rdf-syntax-ns#"
   xmlns:svg="http://www.w3.org/2000/svg"
   xmlns="http://www.w3.org/2000/svg"
   xmlns:sodipodi="http://sodipodi.sourceforge.net/DTD/sodipodi-0.dtd"
   xmlns:inkscape="http://www.inkscape.org/namespaces/inkscape"
   width="113.00178mm"
   height="64.196114mm"
   viewBox="0 0 113.00177 64.196113"
   version="1.1"
   id="svg8"
   inkscape:version="1.0.2 (e86c8708, 2021-01-15)"
   sodipodi:docname="logo_8ball_bubble_clear.svg">
  <defs
     id="defs2">
    <clipPath
       clipPathUnits="userSpaceOnUse"
       id="clipPath852">
      <g
         inkscape:label="Clip"
         id="use854"
         style="fill:none;fill-opacity:1;stroke:#000000;stroke-opacity:1">
        <circle
           style="fill:none;fill-opacity:1;stroke:#000000;stroke-width:0.499999;stroke-opacity:1"
           id="circle882"
           cx="45.618992"
           cy="111.5672"
           r="15" />
        <circle
           style="fill:none;fill-opacity:1;stroke:#000000;stroke-width:0.499999;stroke-opacity:1"
           id="circle884"
           cx="45.618992"
           cy="111.5672"
           r="10" />
        <text
           xml:space="preserve"
           style="font-size:6.89908px;line-height:1.25;font-family:'Artefak Clean Typeface';-inkscape-font-specification:'Artefak Clean Typeface';fill:none;fill-opacity:1;stroke:#000000;stroke-width:0.172476;stroke-opacity:1"
           x="32.556591"
           y="149.15984"
           id="text888"
           transform="scale(1.25767,0.79512112)"><tspan
             sodipodi:role="line"
             id="tspan886"
             x="32.556591"
             y="149.15984"
             style="font-size:27.8261px;fill:none;fill-opacity:1;stroke:#000000;stroke-width:0.172476;stroke-opacity:1">8</tspan></text>
      </g>
    </clipPath>
  </defs>
  <sodipodi:namedview
     id="base"
     pagecolor="#ffffff"
     bordercolor="#666666"
     borderopacity="1.0"
     inkscape:pageopacity="0.0"
     inkscape:pageshadow="2"
     inkscape:zoom="1.3703959"
     inkscape:cx="259.58297"
     inkscape:cy="144.09581"
     inkscape:document-units="mm"
     inkscape:current-layer="layer1"
     inkscape:document-rotation="0"
     showgrid="false"
     inkscape:window-width="1440"
     inkscape:window-height="847"
     inkscape:window-x="276"
     inkscape:window-y="25"
     inkscape:window-maximized="0"
     inkscape:snap-global="true"
     inkscape:snap-bbox="true"
     inkscape:bbox-nodes="false"
     inkscape:snap-bbox-edge-midpoints="true"
     inkscape:snap-bbox-midpoints="true" />
  <metadata
     id="metadata5">
    <rdf:RDF>
      <cc:Work
         rdf:about="">
        <dc:format>image/svg+xml</dc:format>
        <dc:type
           rdf:resource="http://purl.org/dc/dcmitype/StillImage" />
        <dc:title />
      </cc:Work>
    </rdf:RDF>
  </metadata>
  <g
     inkscape:label="Layer 1"
     inkscape:groupmode="layer"
     id="layer1"
     transform="translate(-4.6993998,-48.985662)">
    <g
       id="g1515">
      <path
         id="path860"
         style="fill:#000000;stroke:#b3b3b3;stroke-width:0.0846677"
         d="m 85.778664,49.029015 c -0.314074,-0.0016 -0.62806,-0.0012 -0.941543,5.3e-4 -9.791523,-0.0858 -19.261111,5.108375 -25.051703,12.900504 -2.490393,-1.556885 -5.747004,-1.685683 -8.465632,-0.742073 -3.12162,-0.828651 -6.6701,-1.07729 -9.676413,0.275435 -0.969801,1.000886 -2.093108,-0.321865 -3.23701,-0.368453 -4.078675,-0.87638 -8.689307,-0.531893 -12.181169,1.934753 -3.809021,-3.045318 -8.984743,-2.283625 -13.51287,-2.24224 -2.7537624,-0.08662 -5.4102603,1.32224 -6.7902832,3.72277 -1.6268014,3.163882 -0.9903713,6.87972 -1.1802897,10.305314 0.101827,6.859951 -0.1406896,13.739043 0.3012736,20.586341 0.5802336,3.513873 4.1604001,5.954834 7.6119383,5.912814 4.561327,0.38829 9.557608,0.43227 13.508736,-2.223634 3.432491,2.489184 8.068175,2.796354 12.103136,1.910994 0.953778,-0.1055 1.906222,-0.90456 2.767274,-0.85886 2.452921,1.47113 5.585238,1.65916 8.243941,0.7338 2.943894,0.76342 6.226934,1.04368 9.128125,-0.0222 0.673962,-0.13101 1.417174,-1.305201 1.797306,-0.23926 7.039774,9.2598 19.394821,14.27925 30.872017,11.96206 9.240352,-1.50537 17.682922,-7.26561 22.260662,-15.460041 3.19155,-5.490636 4.69924,-11.903903 4.24263,-18.242295 -0.59113,-13.929966 -11.61106,-26.527388 -25.242904,-29.247309 -2.150875,-0.475588 -4.358698,-0.587614 -6.557222,-0.59893 z m -0.33228,3.166216 c 2.79653,-0.02019 5.59742,0.343753 8.283216,1.12913 9.68574,2.745208 17.51418,10.977095 19.87062,20.751187 2.5362,9.961033 -0.75811,21.157221 -8.36693,28.089762 -7.788829,7.3367 -19.832358,9.73083 -29.812651,5.8384 -6.618895,-2.43358 -12.15342,-7.46041 -15.406811,-13.68392 -0.115975,0.794406 -0.395129,1.535628 -1.035079,2.145606 -0.950397,1.201555 -2.414201,1.899632 -3.958413,1.709973 -1.928151,-0.118237 -4.269801,0.506524 -5.720064,-1.145151 -1.006576,0.973109 -2.456236,1.220007 -3.804936,1.142566 -1.53789,0.05421 -3.088632,-0.766643 -3.998722,-2.011762 -0.362622,0.09389 -0.726739,0.18337 -1.032497,0.382405 -1.963454,1.315397 -4.343413,1.796611 -6.678144,1.61644 -2.390244,0.10232 -4.805935,-0.687945 -6.529834,-2.380218 -0.338617,-0.342752 -0.674609,-0.705437 -0.992704,-1.08572 -1.257693,1.486141 -3.071446,2.544231 -4.895309,3.134691 -2.776042,0.511918 -5.632924,0.372342 -8.442378,0.280603 C 10.697491,98.201851 8.3078208,96.676124 8.0914174,94.333744 7.8431372,86.950146 7.982928,79.556572 7.962743,72.169205 8.0967457,69.89757 7.5609787,67.187224 9.3259673,65.389257 c 1.1982277,-1.464999 3.1918237,-1.455039 4.9139117,-1.405599 1.662514,-0.0011 3.325163,0.0158 4.987293,0.05116 2.7215,-0.141848 5.231904,1.284737 6.940144,3.348116 0.762514,-0.882979 1.717787,-1.620189 2.718697,-2.165243 1.679393,-1.085002 3.69259,-1.291073 5.643582,-1.235583 h 0.144696 0.147277 c 2.301238,-0.140255 4.64743,0.510421 6.383073,2.069641 0.04369,0.0102 0.0865,0.02384 0.129707,0.03566 0.589039,-0.905584 1.491575,-1.63885 2.447396,-2.091862 l 0.918808,-0.151929 c 2.232474,0.05174 4.827206,-0.429359 6.705017,1.100708 1.330318,-1.141064 3.234923,-1.281348 4.905127,-1.018026 1.762238,0.42121 3.437755,1.915037 3.695898,3.752743 1.097254,-2.117939 2.459487,-4.0983 4.070554,-5.870443 5.337439,-6.043932 13.295717,-9.663006 21.369236,-9.613366 z" />
      <text
         xml:space="preserve"
         style="font-size:43.0187px;line-height:1.25;font-family:'Artefak Clean Typeface';-inkscape-font-specification:'Artefak Clean Typeface';fill:#000000;fill-opacity:1;stroke:#000000;stroke-width:0.423412;stroke-miterlimit:4;stroke-dasharray:none;stroke-opacity:1"
         x="11.40442"
         y="94.740257"
         id="text835"><tspan
           sodipodi:role="line"
           id="tspan833"
           x="11.40442"
           y="94.740257"
           style="font-weight:normal;font-size:43.0187px;fill:#000000;fill-opacity:1;stroke:#000000;stroke-width:0.423412;stroke-miterlimit:4;stroke-dasharray:none;stroke-opacity:1">don</tspan></text>
      <circle
         style="fill:#000000;fill-opacity:1;stroke:#000000;stroke-width:0.423412;stroke-miterlimit:4;stroke-dasharray:none;stroke-opacity:1"
         id="path1452"
         cx="85.576271"
         cy="81.023842"
         r="25.404736" />
      <circle
         style="fill:#ffffff;fill-opacity:1;stroke:#000000;stroke-width:0.423412;stroke-miterlimit:4;stroke-dasharray:none;stroke-opacity:1"
         id="path1456"
         cx="85.576271"
         cy="81.023842"
         r="16.936491" />
      <text
         xml:space="preserve"
         style="font-size:11.6846px;line-height:1.25;font-family:'Artefak Clean Typeface';-inkscape-font-specification:'Artefak Clean Typeface';fill:#000000;fill-opacity:1;stroke:#000000;stroke-width:0.423412;stroke-miterlimit:4;stroke-dasharray:none;stroke-opacity:1"
         x="61.749844"
         y="116.88177"
         id="text934"
         transform="scale(1.25767,0.79512113)"><tspan
           sodipodi:role="line"
           id="tspan932"
           x="61.749844"
           y="116.88177"
           style="font-size:47.1276px;fill:#000000;fill-opacity:1;stroke:#000000;stroke-width:0.423412;stroke-miterlimit:4;stroke-dasharray:none;stroke-opacity:1">8</tspan></text>
    </g>
  </g>
</svg>
