<?xml version="1.0" encoding="UTF-8" standalone="no"?>
<svg
   xmlns:dc="http://purl.org/dc/elements/1.1/"
   xmlns:cc="http://creativecommons.org/ns#"
   xmlns:rdf="http://www.w3.org/1999/02/22-rdf-syntax-ns#"
   xmlns:svg="http://www.w3.org/2000/svg"
   xmlns="http://www.w3.org/2000/svg"
   xmlns:sodipodi="http://sodipodi.sourceforge.net/DTD/sodipodi-0.dtd"
   xmlns:inkscape="http://www.inkscape.org/namespaces/inkscape"
   width="54.518021mm"
   height="30mm"
   viewBox="0 0 54.518021 30"
   version="1.1"
   id="svg8"
   inkscape:version="1.0.2 (e86c8708, 2021-01-15)"
   sodipodi:docname="logo_hourglass_rounded_large_8.svg">
  <defs
     id="defs2">
    <inkscape:path-effect
       effect="fillet_chamfer"
       id="path-effect913"
       is_visible="true"
       lpeversion="1"
       satellites_param="F,0,0,1,0,1.0583333,0,1 @ F,0,0,1,0,1.0583333,0,1 @ F,0,0,1,0,1.0583333,0,1 @ F,0,0,1,0,1.0583333,0,1 @ F,0,0,1,0,1.0583333,0,1 @ F,0,0,1,0,1.0583333,0,1 @ F,0,0,1,0,1.0583333,0,1 @ F,0,0,1,0,1.0583333,0,1 @ F,0,0,1,0,1.0583333,0,1 @ F,0,0,1,0,1.0583333,0,1 | F,0,0,1,0,1.0583333,0,1 @ F,0,0,1,0,1.0583333,0,1 @ F,0,0,1,0,1.0583333,0,1 @ F,0,0,1,0,1.0583333,0,1 @ F,0,0,1,0,1.0583333,0,1 | F,0,0,1,0,1.0583333,0,1 @ F,0,0,1,0,1.0583333,0,1 @ F,0,0,1,0,1.0583333,0,1 @ F,0,0,1,0,1.0583333,0,1 @ F,0,0,1,0,1.0583333,0,1"
       unit="px"
       method="auto"
       mode="F"
       radius="4"
       chamfer_steps="1"
       flexible="false"
       use_knot_distance="true"
       apply_no_radius="true"
       apply_with_radius="true"
       only_selected="false"
       hide_knots="false" />
    <inkscape:path-effect
       effect="fillet_chamfer"
       id="path-effect889"
       is_visible="true"
       lpeversion="1"
       satellites_param="F,0,0,1,0,3.3072917,0,1 @ F,0,0,1,0,3.3072917,0,1 @ F,0,0,1,0,3.3072917,0,1 @ F,0,0,1,0,3.3072917,0,1 @ F,0,0,1,0,3.3072917,0,1 @ F,0,0,1,0,3.3072917,0,1 @ F,0,0,1,0,3.3072917,0,1 @ F,0,0,1,0,3.3072917,0,1 @ F,0,0,1,0,3.3072917,0,1 @ F,0,0,1,0,3.3072917,0,1"
       unit="px"
       method="auto"
       mode="F"
       radius="5"
       chamfer_steps="1"
       flexible="false"
       use_knot_distance="true"
       apply_no_radius="true"
       apply_with_radius="true"
       only_selected="true"
       hide_knots="false" />
    <inkscape:path-effect
       effect="fillet_chamfer"
       id="path-effect1506"
       is_visible="true"
       lpeversion="1"
       satellites_param="F,0,0,1,0,1.0583333,0,1 @ F,0,0,1,0,1.0583333,0,1 @ F,0,0,1,0,1.0583333,0,1 @ F,0,0,1,0,1.0583333,0,1 @ F,0,0,1,0,1.0583333,0,1 @ F,0,0,1,0,1.0583333,0,1 @ F,0,0,1,0,1.0583333,0,1 @ F,0,0,1,0,1.0583333,0,1 @ F,0,0,1,0,1.0583333,0,1 @ F,0,0,1,0,1.0583333,0,1 | F,0,0,1,0,1.0583333,0,1 @ F,0,0,1,0,1.0583333,0,1 @ F,0,0,1,0,1.0583333,0,1 @ F,0,0,1,0,1.0583333,0,1 @ F,0,0,1,0,1.0583333,0,1 | F,0,0,1,0,1.0583333,0,1 @ F,0,0,1,0,1.0583333,0,1 @ F,0,0,1,0,1.0583333,0,1 @ F,0,0,1,0,1.0583333,0,1 @ F,0,0,1,0,1.0583333,0,1"
       unit="px"
       method="auto"
       mode="F"
       radius="4"
       chamfer_steps="1"
       flexible="false"
       use_knot_distance="true"
       apply_no_radius="true"
       apply_with_radius="true"
       only_selected="false"
       hide_knots="false" />
    <inkscape:path-effect
       effect="fillet_chamfer"
       id="path-effect1439"
       is_visible="true"
       lpeversion="1"
       satellites_param="F,0,1,1,0,3.3072917,0,1 @ F,0,1,1,0,3.3072917,0,1 @ F,0,1,1,0,3.3072917,0,1 @ F,0,1,1,0,3.3072917,0,1 @ F,0,1,1,0,3.3072917,0,1 @ F,0,1,1,0,3.3072917,0,1 @ F,0,1,1,0,3.3072917,0,1 @ F,0,1,1,0,3.3072917,0,1 @ F,0,1,1,0,3.3072917,0,1 @ F,0,1,1,0,3.3072917,0,1"
       unit="px"
       method="auto"
       mode="F"
       radius="5"
       chamfer_steps="1"
       flexible="false"
       use_knot_distance="true"
       apply_no_radius="true"
       apply_with_radius="true"
       only_selected="true"
       hide_knots="false" />
    <inkscape:path-effect
       effect="fillet_chamfer"
       id="path-effect1218"
       is_visible="true"
       lpeversion="1"
       satellites_param="F,0,0,1,0,3.96875,0,1 @ F,0,0,1,0,3.96875,0,1 @ F,0,0,1,0,3.96875,0,1 @ F,0,1,1,0,2.6458333,0,1 @ F,0,0,1,0,3.96875,0,1 @ F,0,0,1,0,3.96875,0,1 @ F,0,0,1,0,4.2333333,0,1 @ F,0,0,1,0,3.96875,0,1 @ F,0,0,1,0,2.6458333,0,1 @ F,0,0,1,0,3.96875,0,1"
       unit="px"
       method="auto"
       mode="F"
       radius="10"
       chamfer_steps="1"
       flexible="false"
       use_knot_distance="true"
       apply_no_radius="true"
       apply_with_radius="true"
       only_selected="true"
       hide_knots="false" />
    <inkscape:path-effect
       effect="fillet_chamfer"
       id="path-effect928"
       is_visible="true"
       lpeversion="1"
       satellites_param="F,0,0,1,0,0.79375,0,1 @ F,0,0,1,0,0.79375,0,1 @ F,0,0,1,0,0.79375,0,1 @ F,0,0,1,0,0.79375,0,1 @ F,0,0,1,0,0.79375,0,1 @ F,0,0,1,0,0.79375,0,1 @ F,0,0,1,0,0.79375,0,1 @ F,0,0,1,0,0.79375,0,1 @ F,0,0,1,0,0.79375,0,1 @ F,0,0,1,0,0.79375,0,1 | F,0,0,1,0,0.79375,0,1 @ F,0,0,1,0,0.79375,0,1 @ F,0,0,1,0,0.79375,0,1 @ F,0,0,1,0,0.79375,0,1 @ F,0,0,1,0,0.79375,0,1 | F,0,0,1,0,0.79375,0,1 @ F,0,0,1,0,0.79375,0,1 @ F,0,0,1,0,0.79375,0,1 @ F,0,0,1,0,0.79375,0,1 @ F,0,0,1,0,0.79375,0,1"
       unit="px"
       method="auto"
       mode="F"
       radius="3"
       chamfer_steps="1"
       flexible="false"
       use_knot_distance="true"
       apply_no_radius="true"
       apply_with_radius="true"
       only_selected="false"
       hide_knots="false" />
    <inkscape:path-effect
       effect="fillet_chamfer"
       id="path-effect849"
       is_visible="true"
       lpeversion="1"
       satellites_param="F,0,1,1,0,1.8520833,0,1 @ F,0,1,1,0,1.5875,0,1 @ F,0,0,1,0,1.3229167,0,1 @ F,0,0,1,0,1.5875,0,1 @ F,0,1,1,0,1.5875,0,1 @ F,0,1,1,0,1.8520833,0,1 @ F,0,0,1,0,1.5875,0,1 @ F,0,0,1,0,1.3229167,0,1 @ F,0,0,1,0,1.5875,0,1 @ F,0,1,1,0,1.8520833,0,1 | F,0,0,1,0,1.0583333,0,1 @ F,0,0,1,0,1.0583333,0,1 @ F,0,0,1,0,1.3229167,0,1 @ F,0,0,1,0,1.0583333,0,1 @ F,0,0,1,0,1.0583333,0,1 | F,0,0,1,0,1.3229167,0,1 @ F,0,0,1,0,1.0583333,0,1 @ F,0,0,1,0,1.0583333,0,1 @ F,0,0,1,0,1.0583333,0,1 @ F,0,0,1,0,1.0583333,0,1"
       unit="px"
       method="auto"
       mode="F"
       radius="6"
       chamfer_steps="1"
       flexible="false"
       use_knot_distance="true"
       apply_no_radius="true"
       apply_with_radius="true"
       only_selected="true"
       hide_knots="false" />
    <inkscape:path-effect
       effect="fillet_chamfer"
       id="path-effect848"
       is_visible="true"
       lpeversion="1"
       satellites_param="F,0,0,1,0,1.3229167,0,1 @ F,0,0,1,0,1.3229167,0,1 @ F,0,0,1,0,1.3229167,0,1 @ F,0,0,1,0,1.3229167,0,1 @ F,0,0,1,0,1.3229167,0,1 @ F,0,0,1,0,1.3229167,0,1 @ F,0,0,1,0,1.3229167,0,1 @ F,0,0,1,0,1.3229167,0,1 @ F,0,0,1,0,1.3229167,0,1 @ F,0,0,1,0,1.3229167,0,1 | F,0,0,1,0,1.3229167,0,1 @ F,0,0,1,0,1.3229167,0,1 @ F,0,0,1,0,1.3229167,0,1 @ F,0,0,1,0,1.3229167,0,1 @ F,0,0,1,0,1.3229167,0,1 | F,0,0,1,0,1.3229167,0,1 @ F,0,0,1,0,1.3229167,0,1 @ F,0,0,1,0,1.3229167,0,1 @ F,0,0,1,0,1.3229167,0,1 @ F,0,0,1,0,1.3229167,0,1"
       unit="px"
       method="auto"
       mode="F"
       radius="5"
       chamfer_steps="1"
       flexible="false"
       use_knot_distance="true"
       apply_no_radius="true"
       apply_with_radius="true"
       only_selected="false"
       hide_knots="false" />
    <inkscape:path-effect
       effect="fillet_chamfer"
       id="path-effect895"
       is_visible="true"
       lpeversion="1"
       satellites_param="F,0,0,1,0,0,0,1 @ F,0,0,1,0,0,0,1 @ F,0,0,1,0,0,0,1 @ F,0,0,1,0,0,0,1 @ F,0,0,1,0,0,0,1 @ F,0,0,1,0,0,0,1 @ F,0,0,1,0,0,0,1 @ F,0,0,1,0,0,0,1 @ F,0,0,1,0,0,0,1 @ F,0,0,1,0,0,0,1 @ F,0,0,1,0,0,0,1 @ F,0,0,1,0,0,0,1 @ F,0,0,1,0,0,0,1 @ F,0,0,1,0,0,0,1 @ F,0,0,1,0,0,0,1 @ F,0,0,1,0,0,0,1 @ F,0,0,1,0,0,0,1 @ F,0,0,1,0,0,0,1 | F,0,0,1,0,0,0,1 @ F,0,0,1,0,0,0,1 @ F,0,1,1,0,0,0,1 @ F,0,1,1,0,0,0,1 @ F,0,0,1,0,0.79375,0,1 | F,0,0,1,0,0,0,1 @ F,0,0,1,0,0,0,1 @ F,0,0,1,0,0,0,1 @ F,0,0,1,0,0,0,1 @ F,0,0,1,0,0,0,1"
       unit="px"
       method="auto"
       mode="F"
       radius="3"
       chamfer_steps="1"
       flexible="false"
       use_knot_distance="true"
       apply_no_radius="true"
       apply_with_radius="true"
       only_selected="true"
       hide_knots="false" />
    <clipPath
       clipPathUnits="userSpaceOnUse"
       id="clipPath852">
      <g
         inkscape:label="Clip"
         id="use854"
         style="fill:none;fill-opacity:1;stroke:#000000;stroke-opacity:1">
        <circle
           style="fill:none;fill-opacity:1;stroke:#000000;stroke-width:0.499999;stroke-opacity:1"
           id="circle882"
           cx="45.618992"
           cy="111.5672"
           r="15" />
        <circle
           style="fill:none;fill-opacity:1;stroke:#000000;stroke-width:0.499999;stroke-opacity:1"
           id="circle884"
           cx="45.618992"
           cy="111.5672"
           r="10" />
        <text
           xml:space="preserve"
           style="font-size:6.89908px;line-height:1.25;font-family:'Artefak Clean Typeface';-inkscape-font-specification:'Artefak Clean Typeface';fill:none;fill-opacity:1;stroke:#000000;stroke-width:0.172476;stroke-opacity:1"
           x="32.556591"
           y="149.15984"
           id="text888"
           transform="scale(1.25767,0.79512112)"><tspan
             sodipodi:role="line"
             id="tspan886"
             x="32.556591"
             y="149.15984"
             style="font-size:27.8261px;fill:none;fill-opacity:1;stroke:#000000;stroke-width:0.172476;stroke-opacity:1">8</tspan></text>
      </g>
    </clipPath>
  </defs>
  <sodipodi:namedview
     id="base"
     pagecolor="#ffffff"
     bordercolor="#666666"
     borderopacity="1.0"
     inkscape:pageopacity="0.0"
     inkscape:pageshadow="2"
     inkscape:zoom="3.0190871"
     inkscape:cx="87.675488"
     inkscape:cy="66.283935"
     inkscape:document-units="mm"
     inkscape:current-layer="layer1"
     inkscape:document-rotation="0"
     showgrid="false"
     inkscape:window-width="1440"
     inkscape:window-height="819"
     inkscape:window-x="0"
     inkscape:window-y="25"
     inkscape:window-maximized="0"
     inkscape:snap-global="true"
     inkscape:snap-bbox="true"
     inkscape:bbox-nodes="false"
     inkscape:snap-bbox-edge-midpoints="true"
     inkscape:snap-bbox-midpoints="false"
     showguides="true"
     inkscape:snap-others="false"
     inkscape:object-nodes="true"
     inkscape:bbox-paths="false"
     inkscape:object-paths="false"
     inkscape:snap-midpoints="false"
     inkscape:snap-nodes="true">
    <inkscape:grid
       type="xygrid"
       id="grid4669"
       originx="-0.00064249949"
       originy="5.0004859" />
  </sodipodi:namedview>
  <metadata
     id="metadata5">
    <rdf:RDF>
      <cc:Work
         rdf:about="">
        <dc:format>image/svg+xml</dc:format>
        <dc:type
           rdf:resource="http://purl.org/dc/dcmitype/StillImage" />
        <dc:title />
      </cc:Work>
    </rdf:RDF>
  </metadata>
  <g
     inkscape:label="Layer 1"
     inkscape:groupmode="layer"
     id="layer1"
     transform="translate(-11.316926,-62.185165)">
    <g
       id="g1875" />
    <g
       id="g877">
      <path
         id="path1176"
         style="font-size:31.2045px;line-height:1.25;font-family:'Artefak Clean Typeface';-inkscape-font-specification:'Artefak Clean Typeface';fill:#000000;fill-opacity:1;stroke:none;stroke-width:0;stroke-miterlimit:4;stroke-dasharray:none;stroke-opacity:1"
         d="M 61.898438,0 C 61.133136,0 60.191331,0.11298654 58.955078,0.28710938 50.536747,3.0158451 46.298828,7.4292883 46.298828,13.525391 v 48.539062 c 0,6.096102 4.237919,10.509546 12.65625,13.238281 1.236253,0.174123 2.178058,0.28711 2.94336,0.28711 h 5.652343 c 0.765302,0 1.707106,-0.112987 2.94336,-0.28711 8.41833,-2.728735 12.65625,-7.142179 12.65625,-13.238281 V 13.525391 c 0,-6.0961024 -4.23792,-10.5095459 -12.65625,-13.23828162 C 69.257887,0.11298654 68.316083,0 67.550781,0 Z m 0.294921,8.4726562 5.0625,0.00104 c 4.179731,0.7547641 6.242188,2.6729478 6.242188,5.8661428 V 61.25 c 0,3.193194 -2.062457,5.112423 -6.242188,5.867188 h -5.0625 C 58.013629,66.362423 55.951172,64.443194 55.951172,61.25 V 14.339844 c 0,-3.193195 2.062457,-5.1124237 6.242187,-5.8671878 z"
         transform="matrix(0.26458333,0,0,0.26458333,11.316926,67.185259)"
         sodipodi:nodetypes="cccccccccccccccccccccc" />
      <path
         id="path850"
         style="font-size:31.2045px;line-height:1.25;font-family:'Artefak Clean Typeface';-inkscape-font-specification:'Artefak Clean Typeface';fill:#000000;fill-opacity:1;stroke:none;stroke-width:0;stroke-miterlimit:4;stroke-dasharray:none;stroke-opacity:1"
         d="M 92.597656,3.3072917 V 72.282552 a 3.3072917,3.3072917 45 0 0 3.307292,3.307292 h 3.60417 a 3.3072917,3.3072917 135 0 0 3.307292,-3.307292 l 0,-46.963541 a 0.3407918,0.3407918 174.11686 0 1 0.67442,-0.06949 l 9.81131,47.102531 a 4.0671757,4.0671757 39.11686 0 0 3.98171,3.237797 h 8.85808 a 3.3072917,3.3072917 135 0 0 3.30729,-3.307292 V 3.3072917 A 3.3072917,3.3072917 45 0 0 126.14193,0 h -3.60417 a 3.3072917,3.3072917 135 0 0 -3.30729,3.3072917 l 0,46.9635413 a 0.3407921,0.3407921 174.11685 0 1 -0.67442,0.06949 L 108.74473,3.2377973 A 4.0671764,4.0671764 39.116855 0 0 104.76302,0 h -8.858072 a 3.3072917,3.3072917 135 0 0 -3.307292,3.3072917 z"
         sodipodi:nodetypes="ccccccccccc"
         transform="matrix(0.26458333,0,0,0.26458333,11.316926,67.185259)"
         inkscape:original-d="M 92.597656,0 V 75.589844 H 102.81641 V 22.011719 l 11.16015,53.578125 h 15.47266 V 0 H 119.23047 V 53.578125 L 108.07031,0 Z"
         inkscape:path-effect="#path-effect1439" />
      <path
         id="path1148-6"
         style="font-size:31.2045px;line-height:1.25;font-family:'Artefak Clean Typeface';-inkscape-font-specification:'Artefak Clean Typeface';fill:#000000;fill-opacity:1;stroke:none;stroke-width:0;stroke-miterlimit:4;stroke-dasharray:none;stroke-opacity:1"
         d="M 3.2792969,0 C 1.6974928,0 0.64443591,1.1018526 0,3.25 v 69.089844 c 0.64443591,2.148147 1.6974928,3.25 3.2792969,3.25 H 21.265625 c 5.565604,0 10.193902,-2.669833 13.943359,-7.953125 1.113117,-1.915922 1.640625,-3.831249 1.640625,-5.863281 V 13.816406 c 0,-2.032033 -0.527508,-3.9473591 -1.640625,-5.863281 C 31.459527,2.669833 26.831229,0 21.265625,0 Z m 9.9609371,8.4160156 h 7.087891 c 3.925213,0 6.211037,1.9753374 6.855469,5.8652344 v 47.027344 c -0.644432,3.889897 -2.930256,5.865234 -6.855469,5.865234 h -7.087891 c -2.167657,4e-6 -3.3378967,-1.276931 -3.5722652,-3.773437 V 12.189453 C 9.9023373,9.6929467 11.072577,8.4160118 13.240234,8.4160156 Z"
         transform="matrix(0.26458333,0,0,0.26458333,11.316926,67.185259)"
         sodipodi:nodetypes="sccssccccsscsccssccc" />
      <path
         id="path901-4-8"
         style="font-size:31.2045px;line-height:1.25;font-family:'Artefak Clean Typeface';-inkscape-font-specification:'Artefak Clean Typeface';fill:#000000;fill-opacity:1;stroke:none;stroke-width:0;stroke-miterlimit:4;stroke-dasharray:none;stroke-opacity:1"
         d="m 47.819524,63.243498 c 0.0016,2.45475 -0.0039,4.909499 -0.0023,7.364249 3.74e-4,0.584496 0.361637,1.365845 0.806313,1.745192 l 4.859245,4.145356 a 0.90284974,0.90284974 89.999997 0 1 0,1.373739 l -4.859245,4.145355 c -0.444676,0.379348 -0.805939,1.160701 -0.806313,1.745203 -0.0016,2.454749 0.0039,4.9095 0.0023,7.36425 -3.74e-4,0.584496 0.472677,1.058323 1.057178,1.058323 h 15.898503 c 0.584501,0 1.057552,-0.473831 1.057174,-1.058333 -0.0016,-2.45475 0.0038,-4.9095 0.0023,-7.36425 -3.64e-4,-0.584496 -0.361611,-1.365845 -0.806287,-1.745193 l -4.859245,-4.145355 a 0.90284974,0.90284974 90.000003 0 1 0,-1.373739 l 4.859245,-4.145356 c 0.444676,-0.379347 0.805923,-1.1607 0.806287,-1.745202 0.0015,-2.454749 -0.0039,-4.909499 -0.0023,-7.364249 3.78e-4,-0.584496 -0.472673,-1.058323 -1.057174,-1.058323 l -15.898503,0 c -0.584501,0 -1.057552,0.473831 -1.057178,1.058333 z m 4.43221,2.316699 h 9.133439 a 1.0583333,1.0583333 45 0 1 1.058333,1.058333 v 2.433473 a 2.3704636,2.3704636 114.05918 0 1 -0.787956,1.76487 l -4.046665,3.628526 a 1.1808116,1.1808116 179.98747 0 1 -1.576221,3.45e-4 l -4.050998,-3.629216 a 2.3690715,2.3690715 65.928292 0 1 -0.788265,-1.764525 l 0,-2.433473 a 1.0583333,1.0583333 135 0 1 1.058333,-1.058333 z m 5.357151,14.364733 4.046665,3.628525 a 2.3704633,2.3704633 65.940821 0 1 0.787956,1.76487 l 0,2.433756 a 1.0583333,1.0583333 135 0 1 -1.058333,1.058333 h -9.133439 a 1.0583333,1.0583333 45 0 1 -1.058333,-1.058333 l 0,-2.433756 A 2.3690711,2.3690711 114.07171 0 1 51.981666,83.5538 l 4.050998,-3.629215 a 1.1808118,1.1808118 0.01253228 0 1 1.576221,3.45e-4 z"
         sodipodi:nodetypes="ccccccccccccccccccccccc"
         inkscape:original-d="m 47.818369,62.185165 c 0.005,3.160302 -0.005,6.320603 0,9.480905 l 6.469561,5.519094 -6.469561,5.519095 c -0.005,3.160301 0.005,6.320604 0,9.480906 h 18.015169 c -0.005,-3.160302 0.0049,-6.320605 0,-9.480906 l -6.469561,-5.519095 6.469561,-5.519094 c 0.0049,-3.160302 -0.005,-6.320603 0,-9.480905 z m 3.375032,3.375032 h 11.250105 v 4.550139 l -5.622577,5.0416 -5.627528,-5.0416 z m 5.627528,13.658196 5.622577,5.041599 v 4.550422 H 51.193401 v -4.550422 z"
         inkscape:path-effect="#path-effect913" />
    </g>
  </g>
</svg>
