<?xml version="1.0" encoding="UTF-8" standalone="no"?>
<svg
   xmlns:dc="http://purl.org/dc/elements/1.1/"
   xmlns:cc="http://creativecommons.org/ns#"
   xmlns:rdf="http://www.w3.org/1999/02/22-rdf-syntax-ns#"
   xmlns:svg="http://www.w3.org/2000/svg"
   xmlns="http://www.w3.org/2000/svg"
   xmlns:sodipodi="http://sodipodi.sourceforge.net/DTD/sodipodi-0.dtd"
   xmlns:inkscape="http://www.inkscape.org/namespaces/inkscape"
   aria-hidden="true"
   focusable="false"
   data-prefix="fas"
   data-icon="camera"
   class="svg-inline--fa fa-camera fa-w-16"
   role="img"
   viewBox="0 0 900 900.00006"
   version="1.1"
   id="svg835"
   sodipodi:docname="camera-solid.svg"
   width="900"
   height="900.00006"
   inkscape:version="1.0.2 (e86c8708, 2021-01-15)">
  <metadata
     id="metadata841">
    <rdf:RDF>
      <cc:Work
         rdf:about="">
        <dc:format>image/svg+xml</dc:format>
        <dc:type
           rdf:resource="http://purl.org/dc/dcmitype/StillImage" />
      </cc:Work>
    </rdf:RDF>
  </metadata>
  <defs
     id="defs839" />
  <sodipodi:namedview
     pagecolor="#ffffff"
     bordercolor="#666666"
     borderopacity="1"
     objecttolerance="10"
     gridtolerance="10"
     guidetolerance="10"
     inkscape:pageopacity="0"
     inkscape:pageshadow="2"
     inkscape:window-width="1386"
     inkscape:window-height="854"
     id="namedview837"
     showgrid="false"
     inkscape:snap-bbox="true"
     inkscape:snap-bbox-midpoints="true"
     inkscape:zoom="0.3690017"
     inkscape:cx="315.5765"
     inkscape:cy="330.38709"
     inkscape:window-x="0"
     inkscape:window-y="25"
     inkscape:window-maximized="0"
     inkscape:current-layer="svg835" />
  <g
     id="g883"
     transform="translate(194,162.00003)">
    <g
       id="g852"
       style="fill:#808080;fill-opacity:1">
      <path
         id="path833"
         d="m 193.19922,32 c -20,0 -37.89844,12.399609 -44.89844,31.099609 L 136,96 H 48 C 21.5,96 0,117.5 0,144 v 288 c 0,26.5 21.5,48 48,48 h 416 c 26.5,0 48,-21.5 48,-48 V 144 C 512,117.5 490.5,96 464,96 H 376 L 363.59961,63.099609 C 356.59961,44.399609 338.69922,32 318.69922,32 Z M 256,168 c 66.2,0 120,53.8 120,120 0,66.2 -53.8,120 -120,120 -66.2,0 -120,-53.8 -120,-120 0,-66.2 53.8,-120 120,-120 z"
         style="fill:#808080;fill-opacity:1;stroke:none;stroke-width:0;stroke-miterlimit:4;stroke-dasharray:none" />
      <path
         d="m 344,288 c 0,48.5 -39.5,88 -88,88 -48.5,0 -88,-39.5 -88,-88 0,-48.5 39.5,-88 88,-88 48.5,0 88,39.5 88,88 z"
         id="path847"
         style="fill:#808080;fill-opacity:1" />
    </g>
    <path
       id="path854"
       style="fill:#cccccc;fill-opacity:1;stroke:none;stroke-width:0;stroke-miterlimit:4;stroke-dasharray:none"
       d="m 255.5293,-161.99997 a 450,450 0 0 0 -449.5293,450 450,450 0 0 0 450,450 450,450 0 0 0 450,-450 450,450 0 0 0 -450,-450 450,450 0 0 0 -0.4707,0 z M 256,-86.999969 A 375,375 0 0 1 493.32032,-2.3534892 L -34.351561,525.31839 A 375,375 0 0 1 -119,288.00003 375,375 0 0 1 256,-86.999969 Z M 546.35352,50.679721 A 375,375 0 0 1 631,288.00003 a 375,375 0 0 1 -375,375 375,375 0 0 1 -237.318361,-84.65039 z" />
  </g>
</svg>
