<svg width="411" height="731" viewBox="0 0 411 731" fill="none" xmlns="http://www.w3.org/2000/svg">
<rect width="411" height="731" fill="white"/>
<rect width="411" height="56" fill="white"/>
<path d="M72.7715 29.6387C72.7715 28.0111 73.1491 26.7057 73.9043 25.7227C74.6595 24.7331 75.6719 24.2383 76.9414 24.2383C78.0612 24.2383 78.9661 24.6289 79.6562 25.4102V20H82.0293V35H79.8809L79.7637 33.9062C79.054 34.7656 78.1068 35.1953 76.9219 35.1953C75.6849 35.1953 74.6823 34.6973 73.9141 33.7012C73.1523 32.7051 72.7715 31.3509 72.7715 29.6387ZM75.1445 29.8438C75.1445 30.918 75.3496 31.7578 75.7598 32.3633C76.1764 32.9622 76.7656 33.2617 77.5273 33.2617C78.4974 33.2617 79.207 32.8288 79.6562 31.9629V27.4512C79.2201 26.6048 78.5169 26.1816 77.5469 26.1816C76.7786 26.1816 76.1862 26.4876 75.7695 27.0996C75.3529 27.7051 75.1445 28.6198 75.1445 29.8438ZM84.2105 29.6191C84.2105 28.584 84.4156 27.653 84.8258 26.8262C85.2359 25.9928 85.8121 25.3548 86.5543 24.9121C87.2965 24.4629 88.1493 24.2383 89.1129 24.2383C90.5387 24.2383 91.6943 24.6973 92.5797 25.6152C93.4716 26.5332 93.9534 27.7507 94.025 29.2676L94.0348 29.8242C94.0348 30.8659 93.8329 31.7969 93.4293 32.6172C93.0322 33.4375 92.4592 34.0723 91.7105 34.5215C90.9684 34.9707 90.109 35.1953 89.1324 35.1953C87.6415 35.1953 86.4469 34.7005 85.5484 33.7109C84.6565 32.7148 84.2105 31.39 84.2105 29.7363V29.6191ZM86.5836 29.8242C86.5836 30.9115 86.8082 31.7643 87.2574 32.3828C87.7066 32.9948 88.3316 33.3008 89.1324 33.3008C89.9332 33.3008 90.5549 32.9883 90.9977 32.3633C91.4469 31.7383 91.6715 30.8236 91.6715 29.6191C91.6715 28.5514 91.4404 27.7051 90.9781 27.0801C90.5224 26.4551 89.9007 26.1426 89.1129 26.1426C88.3382 26.1426 87.7229 26.4518 87.2672 27.0703C86.8115 27.6823 86.5836 28.6003 86.5836 29.8242ZM98.3937 24.4336L98.4621 25.6543C99.2434 24.7103 100.269 24.2383 101.538 24.2383C103.739 24.2383 104.859 25.498 104.898 28.0176V35H102.525V28.1543C102.525 27.4837 102.378 26.9889 102.085 26.6699C101.799 26.3444 101.327 26.1816 100.669 26.1816C99.7121 26.1816 98.9992 26.6146 98.5305 27.4805V35H96.1574V24.4336H98.3937ZM116.278 24.5312C116.278 25.2279 116.099 25.8496 115.741 26.3965C115.383 26.9368 114.895 27.3633 114.276 27.6758C115.018 28.0208 115.588 28.4928 115.985 29.0918C116.389 29.6908 116.591 30.3678 116.591 31.123C116.591 32.373 116.167 33.3659 115.321 34.1016C114.475 34.8307 113.348 35.1953 111.942 35.1953C110.529 35.1953 109.397 34.8275 108.544 34.0918C107.697 33.3561 107.274 32.3665 107.274 31.123C107.274 30.3613 107.476 29.6777 107.88 29.0723C108.283 28.4668 108.85 28.0013 109.579 27.6758C108.967 27.3633 108.482 26.9368 108.124 26.3965C107.772 25.8496 107.596 25.2279 107.596 24.5312C107.596 23.3203 107.987 22.36 108.768 21.6504C109.55 20.9408 110.604 20.5859 111.932 20.5859C113.267 20.5859 114.325 20.9408 115.106 21.6504C115.888 22.36 116.278 23.3203 116.278 24.5312ZM114.218 31.0059C114.218 30.3027 114.006 29.7363 113.583 29.3066C113.166 28.8704 112.613 28.6523 111.923 28.6523C111.233 28.6523 110.679 28.8672 110.263 29.2969C109.852 29.7266 109.647 30.2962 109.647 31.0059C109.647 31.7025 109.849 32.2591 110.253 32.6758C110.663 33.0924 111.226 33.3008 111.942 33.3008C112.658 33.3008 113.215 33.099 113.612 32.6953C114.016 32.2917 114.218 31.7285 114.218 31.0059ZM113.915 24.6191C113.915 24.0007 113.736 23.4928 113.378 23.0957C113.02 22.6921 112.538 22.4902 111.932 22.4902C111.327 22.4902 110.848 22.6823 110.497 23.0664C110.145 23.444 109.97 23.9616 109.97 24.6191C109.97 25.2702 110.145 25.7878 110.497 26.1719C110.855 26.556 111.337 26.748 111.942 26.748C112.548 26.748 113.026 26.556 113.378 26.1719C113.736 25.7878 113.915 25.2702 113.915 24.6191Z" fill="#020202"/>
<path fill-rule="evenodd" clip-rule="evenodd" d="M19 34H37V32H19V34ZM19 29H37V27H19V29ZM19 22V24H37V22H19Z" fill="#020202"/>
<rect y="56" width="411" height="1" fill="#020202"/>
<rect width="411" height="232" transform="translate(0 499)" fill="white"/>
<rect y="499" width="411" height="1" fill="#020202"/>
<path d="M38.8027 685.074C38.8027 684.468 38.8779 683.985 39.0283 683.625C39.1787 683.265 39.4749 682.871 39.917 682.442C40.3636 682.009 40.6462 681.702 40.7646 681.52C40.9469 681.242 41.0381 680.941 41.0381 680.617C41.0381 680.189 40.931 679.863 40.7168 679.64C40.5072 679.412 40.1973 679.298 39.7871 679.298C39.3952 679.298 39.0785 679.41 38.8369 679.633C38.5999 679.852 38.4814 680.15 38.4814 680.528H36.8203C36.8294 679.722 37.1029 679.084 37.6406 678.614C38.1829 678.145 38.8984 677.91 39.7871 677.91C40.7031 677.91 41.4163 678.143 41.9268 678.607C42.4417 679.072 42.6992 679.722 42.6992 680.556C42.6992 681.299 42.3529 682.03 41.6602 682.75L40.8193 683.577C40.5186 683.919 40.3636 684.418 40.3545 685.074H38.8027ZM38.6865 687.2C38.6865 686.931 38.7708 686.715 38.9395 686.551C39.1081 686.382 39.3359 686.298 39.623 686.298C39.9147 686.298 40.1449 686.384 40.3135 686.558C40.4821 686.726 40.5664 686.94 40.5664 687.2C40.5664 687.451 40.4844 687.66 40.3203 687.829C40.1562 687.998 39.9238 688.082 39.623 688.082C39.3223 688.082 39.0898 687.998 38.9258 687.829C38.7663 687.66 38.6865 687.451 38.6865 687.2ZM49.9619 688H48.3076V680.009L45.8672 680.843V679.441L49.75 678.013H49.9619V688ZM61.6133 688H54.9209V686.858L58.2363 683.242C58.7148 682.709 59.0544 682.265 59.2549 681.909C59.46 681.549 59.5625 681.189 59.5625 680.829C59.5625 680.355 59.4281 679.972 59.1592 679.681C58.8949 679.389 58.5371 679.243 58.0859 679.243C57.5482 679.243 57.1312 679.407 56.835 679.735C56.5387 680.063 56.3906 680.512 56.3906 681.082H54.7295C54.7295 680.476 54.8662 679.931 55.1396 679.448C55.4176 678.961 55.8118 678.582 56.3223 678.313C56.8372 678.045 57.4297 677.91 58.0996 677.91C59.0658 677.91 59.8268 678.154 60.3828 678.642C60.9434 679.125 61.2236 679.795 61.2236 680.651C61.2236 681.148 61.0824 681.67 60.7998 682.217C60.5218 682.759 60.0638 683.377 59.4258 684.069L56.9922 686.674H61.6133V688ZM66.2988 682.265H67.3105C67.821 682.26 68.2243 682.128 68.5205 681.868C68.8213 681.608 68.9717 681.232 68.9717 680.74C68.9717 680.266 68.8464 679.899 68.5957 679.64C68.3496 679.375 67.9714 679.243 67.4609 679.243C67.0143 679.243 66.6475 679.373 66.3604 679.633C66.0732 679.888 65.9297 680.223 65.9297 680.638H64.2686C64.2686 680.127 64.403 679.662 64.6719 679.243C64.9453 678.824 65.3236 678.498 65.8066 678.266C66.2943 678.029 66.8389 677.91 67.4404 677.91C68.4339 677.91 69.2132 678.161 69.7783 678.662C70.348 679.159 70.6328 679.852 70.6328 680.74C70.6328 681.187 70.4893 681.608 70.2021 682.005C69.9196 682.397 69.5527 682.693 69.1016 682.894C69.6484 683.08 70.0632 683.374 70.3457 683.775C70.6328 684.176 70.7764 684.655 70.7764 685.211C70.7764 686.104 70.4688 686.815 69.8535 687.344C69.2428 687.872 68.4385 688.137 67.4404 688.137C66.4834 688.137 65.6995 687.882 65.0889 687.371C64.4782 686.861 64.1729 686.182 64.1729 685.334H65.834C65.834 685.771 65.9798 686.127 66.2715 686.4C66.5677 686.674 66.9642 686.811 67.4609 686.811C67.9759 686.811 68.3815 686.674 68.6777 686.4C68.974 686.127 69.1221 685.73 69.1221 685.211C69.1221 684.687 68.9671 684.284 68.6572 684.001C68.3473 683.718 67.887 683.577 67.2764 683.577H66.2988V682.265Z" fill="#020202"/>
<path d="M97.2148 694.398L95.9844 693.555C96.7188 692.531 97.1016 691.477 97.1328 690.391V688.434H99.2539V690.133C99.2539 690.922 99.0586 691.711 98.668 692.5C98.2852 693.289 97.8008 693.922 97.2148 694.398Z" fill="#020202"/>
<rect x="122" y="671" width="168" height="24" rx="4" fill="#E0E0E0"/>
<path d="M312.523 689.863C312.523 689.488 312.633 689.176 312.852 688.926C313.078 688.676 313.414 688.551 313.859 688.551C314.305 688.551 314.641 688.676 314.867 688.926C315.102 689.176 315.219 689.488 315.219 689.863C315.219 690.223 315.102 690.523 314.867 690.766C314.641 691.008 314.305 691.129 313.859 691.129C313.414 691.129 313.078 691.008 312.852 690.766C312.633 690.523 312.523 690.223 312.523 689.863Z" fill="#020202"/>
<circle cx="358" cy="683" r="20" fill="#020202"/>
<path d="M354.8 686.9L350.6 682.7L349.2 684.1L354.8 689.7L366.8 677.7L365.4 676.3L354.8 686.9Z" fill="white"/>
<path d="M48.7617 535.02C48.7617 536.668 48.5 538.09 47.9766 539.285C47.4531 540.473 46.7188 541.402 45.7734 542.074L48.8203 544.465L47.2852 545.883L43.6875 543.023C43.125 543.164 42.5312 543.234 41.9062 543.234C40.5625 543.234 39.3711 542.906 38.332 542.25C37.293 541.586 36.4844 540.645 35.9062 539.426C35.3359 538.199 35.043 536.781 35.0273 535.172V533.941C35.0273 532.301 35.3125 530.852 35.8828 529.594C36.4531 528.336 37.2578 527.375 38.2969 526.711C39.3438 526.039 40.5391 525.703 41.8828 525.703C43.2578 525.703 44.4648 526.035 45.5039 526.699C46.5508 527.363 47.3555 528.32 47.918 529.57C48.4805 530.812 48.7617 532.266 48.7617 533.93V535.02ZM46.5117 533.918C46.5117 531.91 46.1094 530.363 45.3047 529.277C44.5078 528.184 43.3672 527.637 41.8828 527.637C40.4688 527.637 39.3516 528.18 38.5312 529.266C37.7188 530.344 37.3008 531.844 37.2773 533.766V535.02C37.2773 536.973 37.6836 538.512 38.4961 539.637C39.3164 540.762 40.4531 541.324 41.9062 541.324C43.3594 541.324 44.4844 540.797 45.2812 539.742C46.0781 538.68 46.4883 537.16 46.5117 535.184V533.918Z" fill="#020202"/>
<path d="M73.0078 537.621L73.3359 539.871L73.8164 537.844L77.1914 525.938H79.0898L82.3828 537.844L82.8516 539.906L83.2148 537.609L85.8633 525.938H88.125L83.9883 543H81.9375L78.4219 530.566L78.1523 529.266L77.8828 530.566L74.2383 543H72.1875L68.0625 525.938H70.3125L73.0078 537.621Z" fill="#020202"/>
<path d="M118.805 535.113H111.41V541.16H120V543H109.16V525.938H119.883V527.789H111.41V533.273H118.805V535.113Z" fill="#020202"/>
<path d="M150.844 536.098H146.836V543H144.574V525.938H150.223C152.145 525.938 153.621 526.375 154.652 527.25C155.691 528.125 156.211 529.398 156.211 531.07C156.211 532.133 155.922 533.059 155.344 533.848C154.773 534.637 153.977 535.227 152.953 535.617L156.961 542.859V543H154.547L150.844 536.098ZM146.836 534.258H150.293C151.41 534.258 152.297 533.969 152.953 533.391C153.617 532.812 153.949 532.039 153.949 531.07C153.949 530.016 153.633 529.207 153 528.645C152.375 528.082 151.469 527.797 150.281 527.789H146.836V534.258Z" fill="#020202"/>
<path d="M192.609 527.789H187.125V543H184.887V527.789H179.414V525.938H192.609V527.789Z" fill="#020202"/>
<path d="M221.977 534.504L226.43 525.938H228.984L223.102 536.637V543H220.852V536.637L214.969 525.938H217.547L221.977 534.504Z" fill="#020202"/>
<path d="M264.211 525.938V537.539C264.203 539.148 263.695 540.465 262.688 541.488C261.688 542.512 260.328 543.086 258.609 543.211L258.012 543.234C256.145 543.234 254.656 542.73 253.547 541.723C252.438 540.715 251.875 539.328 251.859 537.562V525.938H254.086V537.492C254.086 538.727 254.426 539.688 255.105 540.375C255.785 541.055 256.754 541.395 258.012 541.395C259.285 541.395 260.258 541.055 260.93 540.375C261.609 539.695 261.949 538.738 261.949 537.504V525.938H264.211Z" fill="#020202"/>
<path d="M295.125 543H292.875V525.938H295.125V543Z" fill="#020202"/>
<path d="M336.855 535.02C336.855 536.691 336.574 538.152 336.012 539.402C335.449 540.645 334.652 541.594 333.621 542.25C332.59 542.906 331.387 543.234 330.012 543.234C328.668 543.234 327.477 542.906 326.438 542.25C325.398 541.586 324.59 540.645 324.012 539.426C323.441 538.199 323.148 536.781 323.133 535.172V533.941C323.133 532.301 323.418 530.852 323.988 529.594C324.559 528.336 325.363 527.375 326.402 526.711C327.449 526.039 328.645 525.703 329.988 525.703C331.355 525.703 332.559 526.035 333.598 526.699C334.645 527.355 335.449 528.312 336.012 529.57C336.574 530.82 336.855 532.277 336.855 533.941V535.02ZM334.617 533.918C334.617 531.895 334.211 530.344 333.398 529.266C332.586 528.18 331.449 527.637 329.988 527.637C328.566 527.637 327.445 528.18 326.625 529.266C325.812 530.344 325.395 531.844 325.371 533.766V535.02C325.371 536.98 325.781 538.523 326.602 539.648C327.43 540.766 328.566 541.324 330.012 541.324C331.465 541.324 332.59 540.797 333.387 539.742C334.184 538.68 334.594 537.16 334.617 535.184V533.918Z" fill="#020202"/>
<path d="M362.66 536.32V543H360.41V525.938H366.703C368.57 525.938 370.031 526.414 371.086 527.367C372.148 528.32 372.68 529.582 372.68 531.152C372.68 532.809 372.16 534.086 371.121 534.984C370.09 535.875 368.609 536.32 366.68 536.32H362.66ZM362.66 534.48H366.703C367.906 534.48 368.828 534.199 369.469 533.637C370.109 533.066 370.43 532.246 370.43 531.176C370.43 530.16 370.109 529.348 369.469 528.738C368.828 528.129 367.949 527.812 366.832 527.789H362.66V534.48Z" fill="#020202"/>
<path d="M63.5742 586.547H56.4258L54.8203 591H52.5L59.0156 573.938H60.9844L67.5117 591H65.2031L63.5742 586.547ZM57.1055 584.695H62.9062L60 576.715L57.1055 584.695Z" fill="#020202"/>
<path d="M95.8828 583.395C93.9531 582.84 92.5469 582.16 91.6641 581.355C90.7891 580.543 90.3516 579.543 90.3516 578.355C90.3516 577.012 90.8867 575.902 91.957 575.027C93.0352 574.145 94.4336 573.703 96.1523 573.703C97.3242 573.703 98.3672 573.93 99.2812 574.383C100.203 574.836 100.914 575.461 101.414 576.258C101.922 577.055 102.176 577.926 102.176 578.871H99.9141C99.9141 577.84 99.5859 577.031 98.9297 576.445C98.2734 575.852 97.3477 575.555 96.1523 575.555C95.043 575.555 94.1758 575.801 93.5508 576.293C92.9336 576.777 92.625 577.453 92.625 578.32C92.625 579.016 92.918 579.605 93.5039 580.09C94.0977 580.566 95.1016 581.004 96.5156 581.402C97.9375 581.801 99.0469 582.242 99.8438 582.727C100.648 583.203 101.242 583.762 101.625 584.402C102.016 585.043 102.211 585.797 102.211 586.664C102.211 588.047 101.672 589.156 100.594 589.992C99.5156 590.82 98.0742 591.234 96.2695 591.234C95.0977 591.234 94.0039 591.012 92.9883 590.566C91.9727 590.113 91.1875 589.496 90.6328 588.715C90.0859 587.934 89.8125 587.047 89.8125 586.055H92.0742C92.0742 587.086 92.4531 587.902 93.2109 588.504C93.9766 589.098 94.9961 589.395 96.2695 589.395C97.457 589.395 98.3672 589.152 99 588.668C99.6328 588.184 99.9492 587.523 99.9492 586.688C99.9492 585.852 99.6562 585.207 99.0703 584.754C98.4844 584.293 97.4219 583.84 95.8828 583.395Z" fill="#020202"/>
<path d="M126.105 591V573.938H130.922C132.406 573.938 133.719 574.266 134.859 574.922C136 575.578 136.879 576.512 137.496 577.723C138.121 578.934 138.438 580.324 138.445 581.895V582.984C138.445 584.594 138.133 586.004 137.508 587.215C136.891 588.426 136.004 589.355 134.848 590.004C133.699 590.652 132.359 590.984 130.828 591H126.105ZM128.355 575.789V589.16H130.723C132.457 589.16 133.805 588.621 134.766 587.543C135.734 586.465 136.219 584.93 136.219 582.938V581.941C136.219 580.004 135.762 578.5 134.848 577.43C133.941 576.352 132.652 575.805 130.98 575.789H128.355Z" fill="#020202"/>
<path d="M172.758 583.465H165.598V591H163.348V573.938H173.918V575.789H165.598V581.625H172.758V583.465Z" fill="#020202"/>
<path d="M210.398 588.762C209.82 589.59 209.012 590.211 207.973 590.625C206.941 591.031 205.738 591.234 204.363 591.234C202.973 591.234 201.738 590.91 200.66 590.262C199.582 589.605 198.746 588.676 198.152 587.473C197.566 586.27 197.266 584.875 197.25 583.289V581.801C197.25 579.23 197.848 577.238 199.043 575.824C200.246 574.41 201.934 573.703 204.105 573.703C205.887 573.703 207.32 574.16 208.406 575.074C209.492 575.98 210.156 577.27 210.398 578.941H208.148C207.727 576.684 206.383 575.555 204.117 575.555C202.609 575.555 201.465 576.086 200.684 577.148C199.91 578.203 199.52 579.734 199.512 581.742V583.137C199.512 585.051 199.949 586.574 200.824 587.707C201.699 588.832 202.883 589.395 204.375 589.395C205.219 589.395 205.957 589.301 206.59 589.113C207.223 588.926 207.746 588.609 208.16 588.164V584.332H204.211V582.504H210.398V588.762Z" fill="#020202"/>
<path d="M246.539 591H244.277V583.113H235.676V591H233.426V573.938H235.676V581.273H244.277V573.938H246.539V591Z" fill="#020202"/>
<path d="M278.508 573.938H280.77V586.02C280.77 587.652 280.277 588.93 279.293 589.852C278.316 590.773 277.012 591.234 275.379 591.234C273.684 591.234 272.363 590.801 271.418 589.934C270.473 589.066 270 587.852 270 586.289H272.25C272.25 587.266 272.516 588.027 273.047 588.574C273.586 589.121 274.363 589.395 275.379 589.395C276.309 589.395 277.059 589.102 277.629 588.516C278.207 587.93 278.5 587.109 278.508 586.055V573.938Z" fill="#020202"/>
<path d="M310.793 583.066L308.707 585.234V591H306.457V573.938H308.707V582.375L316.289 573.938H319.008L312.293 581.473L319.535 591H316.84L310.793 583.066Z" fill="#020202"/>
<path d="M345.785 589.16H353.871V591H343.523V573.938H345.785V589.16Z" fill="#020202"/>
<path fill-rule="evenodd" clip-rule="evenodd" d="M56.59 631.91L52 627.32L47.41 631.91L46 630.5L52 624.5L58 630.5L56.59 631.91ZM58 635V637H46V635H58Z" fill="#020202"/>
<path d="M92.4844 637.16H102.246V639H89.8242V637.312L99.1758 623.789H89.9766V621.938H101.871V623.59L92.4844 637.16Z" fill="#020202"/>
<path d="M132.023 628.477L136.113 621.938H138.762L133.371 630.398L138.891 639H136.219L132.023 632.344L127.805 639H125.145L130.676 630.398L125.273 621.938H127.91L132.023 628.477Z" fill="#020202"/>
<path d="M174.715 633.586C174.504 635.391 173.836 636.785 172.711 637.77C171.594 638.746 170.105 639.234 168.246 639.234C166.23 639.234 164.613 638.512 163.395 637.066C162.184 635.621 161.578 633.688 161.578 631.266V629.625C161.578 628.039 161.859 626.645 162.422 625.441C162.992 624.238 163.797 623.316 164.836 622.676C165.875 622.027 167.078 621.703 168.445 621.703C170.258 621.703 171.711 622.211 172.805 623.227C173.898 624.234 174.535 625.633 174.715 627.422H172.453C172.258 626.062 171.832 625.078 171.176 624.469C170.527 623.859 169.617 623.555 168.445 623.555C167.008 623.555 165.879 624.086 165.059 625.148C164.246 626.211 163.84 627.723 163.84 629.684V631.336C163.84 633.188 164.227 634.66 165 635.754C165.773 636.848 166.855 637.395 168.246 637.395C169.496 637.395 170.453 637.113 171.117 636.551C171.789 635.98 172.234 634.992 172.453 633.586H174.715Z" fill="#020202"/>
<path d="M203.988 636.012L208.863 621.938H211.324L204.996 639H203.004L196.688 621.938H199.137L203.988 636.012Z" fill="#020202"/>
<path d="M234.504 639V621.938H240.082C241.934 621.938 243.324 622.32 244.254 623.086C245.191 623.852 245.66 624.984 245.66 626.484C245.66 627.281 245.434 627.988 244.98 628.605C244.527 629.215 243.91 629.688 243.129 630.023C244.051 630.281 244.777 630.773 245.309 631.5C245.848 632.219 246.117 633.078 246.117 634.078C246.117 635.609 245.621 636.812 244.629 637.688C243.637 638.562 242.234 639 240.422 639H234.504ZM236.754 631.02V637.16H240.469C241.516 637.16 242.34 636.891 242.941 636.352C243.551 635.805 243.855 635.055 243.855 634.102C243.855 632.047 242.738 631.02 240.504 631.02H236.754ZM236.754 629.215H240.152C241.137 629.215 241.922 628.969 242.508 628.477C243.102 627.984 243.398 627.316 243.398 626.473C243.398 625.535 243.125 624.855 242.578 624.434C242.031 624.004 241.199 623.789 240.082 623.789H236.754V629.215Z" fill="#020202"/>
<path d="M282.539 639H280.277L271.688 625.852V639H269.426V621.938H271.688L280.301 635.145V621.938H282.539V639Z" fill="#020202"/>
<path d="M306.41 621.938L311.988 635.859L317.566 621.938H320.484V639H318.234V632.355L318.445 625.184L312.844 639H311.121L305.531 625.219L305.754 632.355V639H303.504V621.938H306.41Z" fill="#020202"/>
<path fill-rule="evenodd" clip-rule="evenodd" d="M366 622H351C350.31 622 349.77 622.35 349.41 622.88L344 631L349.41 639.11C349.77 639.64 350.31 640 351 640H366C367.1 640 368 639.1 368 638V624C368 622.9 367.1 622 366 622ZM366 638H351.07L346.4 631L351.06 624H366V638ZM358 632.41L354.41 636L353 634.59L356.59 631L353 627.41L354.41 626L358 629.59L361.59 626L363 627.41L359.41 631L363 634.59L361.59 636L358 632.41Z" fill="#020202"/>
<path d="M268 456C268 453.791 269.791 452 272 452H366C368.209 452 370 453.791 370 456V484C370 486.209 368.209 488 366 488H272C269.791 488 268 486.209 268 484V456Z" fill="#212121"/>
<path fill-rule="evenodd" clip-rule="evenodd" d="M291 471H285V477H283V471H277V469H283V463H285V469H291V471Z" fill="white"/>
<path d="M306.214 472.437C306.214 471.999 306.059 471.662 305.749 471.425C305.444 471.188 304.89 470.949 304.088 470.707C303.286 470.465 302.648 470.197 302.174 469.9C301.267 469.331 300.813 468.588 300.813 467.672C300.813 466.87 301.139 466.209 301.791 465.689C302.447 465.17 303.297 464.91 304.341 464.91C305.034 464.91 305.651 465.038 306.193 465.293C306.736 465.548 307.162 465.913 307.472 466.387C307.782 466.856 307.937 467.378 307.937 467.952H306.214C306.214 467.433 306.05 467.027 305.722 466.735C305.398 466.439 304.933 466.291 304.327 466.291C303.762 466.291 303.322 466.412 303.008 466.653C302.698 466.895 302.543 467.232 302.543 467.665C302.543 468.03 302.712 468.335 303.049 468.581C303.386 468.823 303.942 469.06 304.717 469.292C305.492 469.52 306.114 469.782 306.583 470.078C307.052 470.37 307.396 470.707 307.615 471.09C307.834 471.468 307.943 471.912 307.943 472.423C307.943 473.252 307.624 473.913 306.986 474.405C306.353 474.893 305.492 475.137 304.402 475.137C303.682 475.137 303.019 475.005 302.413 474.74C301.812 474.471 301.342 474.102 301.005 473.633C300.672 473.163 300.506 472.617 300.506 471.992H302.235C302.235 472.557 302.422 472.995 302.796 473.305C303.17 473.615 303.705 473.77 304.402 473.77C305.004 473.77 305.455 473.649 305.756 473.407C306.061 473.161 306.214 472.838 306.214 472.437ZM317.991 465.047V471.698C317.991 472.756 317.652 473.594 316.973 474.214C316.298 474.829 315.398 475.137 314.272 475.137C313.133 475.137 312.229 474.834 311.559 474.228C310.889 473.617 310.554 472.771 310.554 471.691V465.047H312.276V471.705C312.276 472.37 312.445 472.879 312.782 473.229C313.119 473.58 313.616 473.756 314.272 473.756C315.603 473.756 316.269 473.054 316.269 471.65V465.047H317.991ZM321.094 475V465.047H324.505C325.631 465.047 326.487 465.272 327.075 465.724C327.663 466.175 327.957 466.847 327.957 467.74C327.957 468.196 327.834 468.606 327.588 468.971C327.342 469.335 326.982 469.618 326.508 469.818C327.046 469.964 327.46 470.24 327.752 470.646C328.048 471.047 328.196 471.53 328.196 472.095C328.196 473.029 327.896 473.747 327.294 474.248C326.697 474.749 325.84 475 324.724 475H321.094ZM322.823 470.509V473.619H324.744C325.286 473.619 325.71 473.485 326.016 473.216C326.321 472.947 326.474 472.573 326.474 472.095C326.474 471.06 325.945 470.532 324.888 470.509H322.823ZM322.823 469.237H324.519C325.056 469.237 325.476 469.117 325.776 468.875C326.082 468.629 326.234 468.283 326.234 467.836C326.234 467.344 326.093 466.988 325.811 466.77C325.533 466.551 325.097 466.441 324.505 466.441H322.823V469.237ZM333.418 465.047L336.289 472.676L339.153 465.047H341.389V475H339.666V471.719L339.837 467.33L336.897 475H335.66L332.728 467.337L332.898 471.719V475H331.176V465.047H333.418ZM346.515 475H344.792V465.047H346.515V475ZM356.877 466.441H353.773V475H352.058V466.441H348.981V465.047H356.877V466.441Z" fill="white"/>
<rect x="362" y="464.5" width="4" height="11" fill="white" fill-opacity="0.01"/>
<path d="M42 80C42 77.7909 43.7909 76 46 76H366C368.209 76 370 77.7909 370 80V128C370 130.209 368.209 132 366 132H46C43.7909 132 42 130.209 42 128V80Z" fill="white"/>
<path d="M67.1797 98.8594H63.5234V109H62.0312V98.8594H58.3828V97.625H67.1797V98.8594ZM70.3609 109H68.9156V100.547H70.3609V109ZM68.7984 98.3047C68.7984 98.0703 68.8687 97.8724 69.0094 97.7109C69.1552 97.5495 69.3687 97.4688 69.65 97.4688C69.9312 97.4688 70.1448 97.5495 70.2906 97.7109C70.4365 97.8724 70.5094 98.0703 70.5094 98.3047C70.5094 98.5391 70.4365 98.7344 70.2906 98.8906C70.1448 99.0469 69.9312 99.125 69.65 99.125C69.3687 99.125 69.1552 99.0469 69.0094 98.8906C68.8687 98.7344 68.7984 98.5391 68.7984 98.3047ZM74.7922 98.5V100.547H76.3703V101.664H74.7922V106.906C74.7922 107.245 74.8625 107.5 75.0031 107.672C75.1438 107.839 75.3833 107.922 75.7219 107.922C75.8885 107.922 76.1177 107.891 76.4094 107.828V109C76.0292 109.104 75.6594 109.156 75.3 109.156C74.6542 109.156 74.1672 108.961 73.8391 108.57C73.5109 108.18 73.3469 107.625 73.3469 106.906V101.664H71.8078V100.547H73.3469V98.5H74.7922ZM79.7859 109H78.3406V97H79.7859V109ZM85.7641 109.156C84.6182 109.156 83.6859 108.781 82.9672 108.031C82.2484 107.276 81.8891 106.268 81.8891 105.008V104.742C81.8891 103.904 82.0479 103.156 82.3656 102.5C82.6885 101.839 83.1365 101.323 83.7094 100.953C84.2875 100.578 84.9125 100.391 85.5844 100.391C86.6833 100.391 87.5375 100.753 88.1469 101.477C88.7563 102.201 89.0609 103.237 89.0609 104.586V105.188H83.3344C83.3552 106.021 83.5974 106.695 84.0609 107.211C84.5297 107.721 85.1234 107.977 85.8422 107.977C86.3526 107.977 86.7849 107.872 87.1391 107.664C87.4932 107.456 87.8031 107.18 88.0688 106.836L88.9516 107.523C88.2432 108.612 87.1807 109.156 85.7641 109.156ZM85.5844 101.578C85.001 101.578 84.5115 101.792 84.1156 102.219C83.7198 102.641 83.475 103.234 83.3813 104H87.6156V103.891C87.574 103.156 87.376 102.589 87.0219 102.188C86.6677 101.781 86.1885 101.578 85.5844 101.578Z" fill="#757575"/>
<path d="M46 77H366V75H46V77ZM369 80V128H371V80H369ZM366 131H46V133H366V131ZM43 128V80H41V128H43ZM46 131C44.3431 131 43 129.657 43 128H41C41 130.761 43.2386 133 46 133V131ZM369 128C369 129.657 367.657 131 366 131V133C368.761 133 371 130.761 371 128H369ZM366 77C367.657 77 369 78.3431 369 80H371C371 77.2386 368.761 75 366 75V77ZM46 75C43.2386 75 41 77.2386 41 80H43C43 78.3431 44.3431 77 46 77V75Z" fill="#020202"/>
<path d="M42 156C42 153.791 43.7909 152 46 152H366C368.209 152 370 153.791 370 156V204C370 206.209 368.209 208 366 208H46C43.7909 208 42 206.209 42 204V156Z" fill="white"/>
<path d="M60.8281 183.773H66.2188V185H59.3203V173.625H60.8281V183.773ZM67.4703 180.695C67.4703 179.867 67.6318 179.122 67.9547 178.461C68.2828 177.799 68.7359 177.289 69.3141 176.93C69.8974 176.57 70.5615 176.391 71.3062 176.391C72.4573 176.391 73.387 176.789 74.0953 177.586C74.8089 178.383 75.1656 179.443 75.1656 180.766V180.867C75.1656 181.69 75.0068 182.43 74.6891 183.086C74.3766 183.737 73.926 184.245 73.3375 184.609C72.7542 184.974 72.0823 185.156 71.3219 185.156C70.176 185.156 69.2464 184.758 68.5328 183.961C67.8245 183.164 67.4703 182.109 67.4703 180.797V180.695ZM68.9234 180.867C68.9234 181.805 69.1396 182.557 69.5719 183.125C70.0094 183.693 70.5927 183.977 71.3219 183.977C72.0562 183.977 72.6396 183.69 73.0719 183.117C73.5042 182.539 73.7203 181.732 73.7203 180.695C73.7203 179.768 73.499 179.018 73.0562 178.445C72.6187 177.867 72.0354 177.578 71.3062 177.578C70.5927 177.578 70.0172 177.862 69.5797 178.43C69.1422 178.997 68.9234 179.81 68.9234 180.867ZM80.5187 183.977C81.0344 183.977 81.4849 183.82 81.8703 183.508C82.2557 183.195 82.4693 182.805 82.5109 182.336H83.8781C83.8521 182.82 83.6854 183.281 83.3781 183.719C83.0708 184.156 82.6594 184.505 82.1437 184.766C81.6333 185.026 81.0917 185.156 80.5187 185.156C79.3677 185.156 78.451 184.773 77.7687 184.008C77.0917 183.237 76.7531 182.185 76.7531 180.852V180.609C76.7531 179.786 76.9042 179.055 77.2062 178.414C77.5083 177.773 77.9406 177.276 78.5031 176.922C79.0708 176.568 79.7401 176.391 80.5109 176.391C81.4589 176.391 82.2453 176.674 82.8703 177.242C83.5005 177.81 83.8365 178.547 83.8781 179.453H82.5109C82.4693 178.906 82.2609 178.458 81.8859 178.109C81.5161 177.755 81.0578 177.578 80.5109 177.578C79.7766 177.578 79.2062 177.844 78.8 178.375C78.399 178.901 78.1984 179.664 78.1984 180.664V180.938C78.1984 181.911 78.399 182.661 78.8 183.188C79.201 183.714 79.774 183.977 80.5187 183.977ZM90.8719 185C90.7885 184.833 90.7208 184.536 90.6688 184.109C89.9969 184.807 89.1948 185.156 88.2625 185.156C87.4292 185.156 86.7443 184.922 86.2078 184.453C85.6766 183.979 85.4109 183.38 85.4109 182.656C85.4109 181.776 85.7443 181.094 86.4109 180.609C87.0828 180.12 88.0255 179.875 89.2391 179.875H90.6453V179.211C90.6453 178.706 90.4943 178.305 90.1922 178.008C89.8901 177.706 89.4448 177.555 88.8563 177.555C88.3406 177.555 87.9083 177.685 87.5594 177.945C87.2104 178.206 87.0359 178.521 87.0359 178.891H85.5828C85.5828 178.469 85.7313 178.062 86.0281 177.672C86.3302 177.276 86.7365 176.964 87.2469 176.734C87.7625 176.505 88.3276 176.391 88.9422 176.391C89.9161 176.391 90.6792 176.635 91.2313 177.125C91.7833 177.609 92.0698 178.279 92.0906 179.133V183.023C92.0906 183.799 92.1896 184.417 92.3875 184.875V185H90.8719ZM88.4734 183.898C88.9266 183.898 89.3563 183.781 89.7625 183.547C90.1688 183.312 90.463 183.008 90.6453 182.633V180.898H89.5125C87.7417 180.898 86.8563 181.417 86.8563 182.453C86.8563 182.906 87.0073 183.26 87.3094 183.516C87.6115 183.771 87.9995 183.898 88.4734 183.898ZM96.4672 174.5V176.547H98.0453V177.664H96.4672V182.906C96.4672 183.245 96.5375 183.5 96.6781 183.672C96.8187 183.839 97.0583 183.922 97.3969 183.922C97.5635 183.922 97.7927 183.891 98.0844 183.828V185C97.7042 185.104 97.3344 185.156 96.975 185.156C96.3292 185.156 95.8422 184.961 95.5141 184.57C95.1859 184.18 95.0219 183.625 95.0219 182.906V177.664H93.4828V176.547H95.0219V174.5H96.4672ZM101.461 185H100.016V176.547H101.461V185ZM99.8984 174.305C99.8984 174.07 99.9688 173.872 100.109 173.711C100.255 173.549 100.469 173.469 100.75 173.469C101.031 173.469 101.245 173.549 101.391 173.711C101.536 173.872 101.609 174.07 101.609 174.305C101.609 174.539 101.536 174.734 101.391 174.891C101.245 175.047 101.031 175.125 100.75 175.125C100.469 175.125 100.255 175.047 100.109 174.891C99.9688 174.734 99.8984 174.539 99.8984 174.305ZM103.548 180.695C103.548 179.867 103.71 179.122 104.033 178.461C104.361 177.799 104.814 177.289 105.392 176.93C105.976 176.57 106.64 176.391 107.384 176.391C108.535 176.391 109.465 176.789 110.173 177.586C110.887 178.383 111.244 179.443 111.244 180.766V180.867C111.244 181.69 111.085 182.43 110.767 183.086C110.455 183.737 110.004 184.245 109.416 184.609C108.832 184.974 108.16 185.156 107.4 185.156C106.254 185.156 105.324 184.758 104.611 183.961C103.903 183.164 103.548 182.109 103.548 180.797V180.695ZM105.002 180.867C105.002 181.805 105.218 182.557 105.65 183.125C106.088 183.693 106.671 183.977 107.4 183.977C108.134 183.977 108.718 183.69 109.15 183.117C109.582 182.539 109.798 181.732 109.798 180.695C109.798 179.768 109.577 179.018 109.134 178.445C108.697 177.867 108.114 177.578 107.384 177.578C106.671 177.578 106.095 177.862 105.658 178.43C105.22 178.997 105.002 179.81 105.002 180.867ZM114.573 176.547L114.62 177.609C115.266 176.797 116.11 176.391 117.152 176.391C118.938 176.391 119.839 177.398 119.855 179.414V185H118.409V179.406C118.404 178.797 118.264 178.346 117.987 178.055C117.717 177.763 117.292 177.617 116.714 177.617C116.245 177.617 115.834 177.742 115.48 177.992C115.126 178.242 114.849 178.57 114.652 178.977V185H113.206V176.547H114.573Z" fill="#757575"/>
<path d="M46 153H366V151H46V153ZM369 156V204H371V156H369ZM366 207H46V209H366V207ZM43 204V156H41V204H43ZM46 207C44.3431 207 43 205.657 43 204H41C41 206.761 43.2386 209 46 209V207ZM369 204C369 205.657 367.657 207 366 207V209C368.761 209 371 206.761 371 204H369ZM366 153C367.657 153 369 154.343 369 156H371C371 153.239 368.761 151 366 151V153ZM46 151C43.2386 151 41 153.239 41 156H43C43 154.343 44.3431 153 46 153V151Z" fill="#020202"/>
<path d="M42 389C42 386.791 43.7909 385 46 385H366C368.209 385 370 386.791 370 389V437C370 439.209 368.209 441 366 441H46C43.7909 441 42 439.209 42 437V389Z" fill="white"/>
<path d="M62.6016 418.156C61.4557 418.156 60.5234 417.781 59.8047 417.031C59.0859 416.276 58.7266 415.268 58.7266 414.008V413.742C58.7266 412.904 58.8854 412.156 59.2031 411.5C59.526 410.839 59.974 410.323 60.5469 409.953C61.125 409.578 61.75 409.391 62.4219 409.391C63.5208 409.391 64.375 409.753 64.9844 410.477C65.5938 411.201 65.8984 412.237 65.8984 413.586V414.188H60.1719C60.1927 415.021 60.4349 415.695 60.8984 416.211C61.3672 416.721 61.9609 416.977 62.6797 416.977C63.1901 416.977 63.6224 416.872 63.9766 416.664C64.3307 416.456 64.6406 416.18 64.9062 415.836L65.7891 416.523C65.0807 417.612 64.0182 418.156 62.6016 418.156ZM62.4219 410.578C61.8385 410.578 61.349 410.792 60.9531 411.219C60.5573 411.641 60.3125 412.234 60.2188 413H64.4531V412.891C64.4115 412.156 64.2135 411.589 63.8594 411.188C63.5052 410.781 63.026 410.578 62.4219 410.578ZM70.7359 413.758H66.9234V412.578H70.7359V413.758ZM74.4641 406.625L78.1828 415.906L81.9016 406.625H83.8469V418H82.3469V413.57L82.4875 408.789L78.7531 418H77.6047L73.8781 408.812L74.0266 413.57V418H72.5266V406.625H74.4641ZM91.6375 418C91.5542 417.833 91.4865 417.536 91.4344 417.109C90.7625 417.807 89.9604 418.156 89.0281 418.156C88.1948 418.156 87.5099 417.922 86.9734 417.453C86.4422 416.979 86.1766 416.38 86.1766 415.656C86.1766 414.776 86.5099 414.094 87.1766 413.609C87.8484 413.12 88.7911 412.875 90.0047 412.875H91.4109V412.211C91.4109 411.706 91.2599 411.305 90.9578 411.008C90.6557 410.706 90.2104 410.555 89.6219 410.555C89.1063 410.555 88.674 410.685 88.325 410.945C87.976 411.206 87.8016 411.521 87.8016 411.891H86.3484C86.3484 411.469 86.4969 411.062 86.7938 410.672C87.0958 410.276 87.5021 409.964 88.0125 409.734C88.5281 409.505 89.0932 409.391 89.7078 409.391C90.6818 409.391 91.4448 409.635 91.9969 410.125C92.549 410.609 92.8354 411.279 92.8563 412.133V416.023C92.8563 416.799 92.9552 417.417 93.1531 417.875V418H91.6375ZM89.2391 416.898C89.6922 416.898 90.1219 416.781 90.5281 416.547C90.9344 416.312 91.2286 416.008 91.4109 415.633V413.898H90.2781C88.5073 413.898 87.6219 414.417 87.6219 415.453C87.6219 415.906 87.7729 416.26 88.075 416.516C88.3771 416.771 88.7651 416.898 89.2391 416.898ZM96.8422 418H95.3969V409.547H96.8422V418ZM95.2797 407.305C95.2797 407.07 95.35 406.872 95.4906 406.711C95.6365 406.549 95.85 406.469 96.1312 406.469C96.4125 406.469 96.626 406.549 96.7719 406.711C96.9177 406.872 96.9906 407.07 96.9906 407.305C96.9906 407.539 96.9177 407.734 96.7719 407.891C96.626 408.047 96.4125 408.125 96.1312 408.125C95.85 408.125 95.6365 408.047 95.4906 407.891C95.35 407.734 95.2797 407.539 95.2797 407.305ZM100.883 418H99.4375V406H100.883V418ZM107.089 413.695C107.089 412.867 107.251 412.122 107.573 411.461C107.902 410.799 108.355 410.289 108.933 409.93C109.516 409.57 110.18 409.391 110.925 409.391C112.076 409.391 113.006 409.789 113.714 410.586C114.428 411.383 114.784 412.443 114.784 413.766V413.867C114.784 414.69 114.626 415.43 114.308 416.086C113.995 416.737 113.545 417.245 112.956 417.609C112.373 417.974 111.701 418.156 110.941 418.156C109.795 418.156 108.865 417.758 108.152 416.961C107.443 416.164 107.089 415.109 107.089 413.797V413.695ZM108.542 413.867C108.542 414.805 108.758 415.557 109.191 416.125C109.628 416.693 110.211 416.977 110.941 416.977C111.675 416.977 112.258 416.69 112.691 416.117C113.123 415.539 113.339 414.732 113.339 413.695C113.339 412.768 113.118 412.018 112.675 411.445C112.237 410.867 111.654 410.578 110.925 410.578C110.211 410.578 109.636 410.862 109.198 411.43C108.761 411.997 108.542 412.81 108.542 413.867ZM120.833 410.844C120.614 410.807 120.377 410.789 120.122 410.789C119.174 410.789 118.531 411.193 118.192 412V418H116.747V409.547H118.153L118.177 410.523C118.651 409.768 119.322 409.391 120.192 409.391C120.473 409.391 120.687 409.427 120.833 409.5V410.844ZM128.398 407.5V409.547H129.977V410.664H128.398V415.906C128.398 416.245 128.469 416.5 128.609 416.672C128.75 416.839 128.99 416.922 129.328 416.922C129.495 416.922 129.724 416.891 130.016 416.828V418C129.635 418.104 129.266 418.156 128.906 418.156C128.26 418.156 127.773 417.961 127.445 417.57C127.117 417.18 126.953 416.625 126.953 415.906V410.664H125.414V409.547H126.953V407.5H128.398ZM135.33 418.156C134.184 418.156 133.252 417.781 132.533 417.031C131.814 416.276 131.455 415.268 131.455 414.008V413.742C131.455 412.904 131.614 412.156 131.931 411.5C132.254 410.839 132.702 410.323 133.275 409.953C133.853 409.578 134.478 409.391 135.15 409.391C136.249 409.391 137.103 409.753 137.713 410.477C138.322 411.201 138.627 412.237 138.627 413.586V414.188H132.9C132.921 415.021 133.163 415.695 133.627 416.211C134.095 416.721 134.689 416.977 135.408 416.977C135.918 416.977 136.351 416.872 136.705 416.664C137.059 416.456 137.369 416.18 137.634 415.836L138.517 416.523C137.809 417.612 136.746 418.156 135.33 418.156ZM135.15 410.578C134.567 410.578 134.077 410.792 133.681 411.219C133.285 411.641 133.041 412.234 132.947 413H137.181V412.891C137.14 412.156 136.942 411.589 136.588 411.188C136.233 410.781 135.754 410.578 135.15 410.578ZM142.027 418H140.581V406H142.027V418ZM148.005 418.156C146.859 418.156 145.927 417.781 145.208 417.031C144.489 416.276 144.13 415.268 144.13 414.008V413.742C144.13 412.904 144.289 412.156 144.606 411.5C144.929 410.839 145.377 410.323 145.95 409.953C146.528 409.578 147.153 409.391 147.825 409.391C148.924 409.391 149.778 409.753 150.387 410.477C150.997 411.201 151.302 412.237 151.302 413.586V414.188H145.575C145.596 415.021 145.838 415.695 146.302 416.211C146.77 416.721 147.364 416.977 148.083 416.977C148.593 416.977 149.026 416.872 149.38 416.664C149.734 416.456 150.044 416.18 150.309 415.836L151.192 416.523C150.484 417.612 149.421 418.156 148.005 418.156ZM147.825 410.578C147.242 410.578 146.752 410.792 146.356 411.219C145.96 411.641 145.716 412.234 145.622 413H149.856V412.891C149.815 412.156 149.617 411.589 149.262 411.188C148.908 410.781 148.429 410.578 147.825 410.578ZM160.272 413.867C160.272 415.154 159.978 416.19 159.389 416.977C158.801 417.763 158.004 418.156 156.998 418.156C155.972 418.156 155.165 417.831 154.577 417.18V421.25H153.131V409.547H154.452L154.522 410.484C155.11 409.755 155.928 409.391 156.975 409.391C157.991 409.391 158.793 409.773 159.381 410.539C159.975 411.305 160.272 412.37 160.272 413.734V413.867ZM158.827 413.703C158.827 412.75 158.623 411.997 158.217 411.445C157.811 410.893 157.254 410.617 156.545 410.617C155.67 410.617 155.014 411.005 154.577 411.781V415.82C155.009 416.591 155.67 416.977 156.561 416.977C157.254 416.977 157.803 416.703 158.209 416.156C158.621 415.604 158.827 414.786 158.827 413.703ZM163.711 410.57C164.352 409.784 165.185 409.391 166.211 409.391C167.997 409.391 168.898 410.398 168.914 412.414V418H167.469V412.406C167.464 411.797 167.323 411.346 167.047 411.055C166.776 410.763 166.352 410.617 165.773 410.617C165.305 410.617 164.893 410.742 164.539 410.992C164.185 411.242 163.909 411.57 163.711 411.977V418H162.266V406H163.711V410.57ZM170.845 413.695C170.845 412.867 171.007 412.122 171.33 411.461C171.658 410.799 172.111 410.289 172.689 409.93C173.272 409.57 173.936 409.391 174.681 409.391C175.832 409.391 176.762 409.789 177.47 410.586C178.184 411.383 178.541 412.443 178.541 413.766V413.867C178.541 414.69 178.382 415.43 178.064 416.086C177.752 416.737 177.301 417.245 176.713 417.609C176.129 417.974 175.457 418.156 174.697 418.156C173.551 418.156 172.621 417.758 171.908 416.961C171.199 416.164 170.845 415.109 170.845 413.797V413.695ZM172.298 413.867C172.298 414.805 172.515 415.557 172.947 416.125C173.384 416.693 173.968 416.977 174.697 416.977C175.431 416.977 176.015 416.69 176.447 416.117C176.879 415.539 177.095 414.732 177.095 413.695C177.095 412.768 176.874 412.018 176.431 411.445C175.994 410.867 175.41 410.578 174.681 410.578C173.968 410.578 173.392 410.862 172.955 411.43C172.517 411.997 172.298 412.81 172.298 413.867ZM181.87 409.547L181.917 410.609C182.563 409.797 183.407 409.391 184.448 409.391C186.235 409.391 187.136 410.398 187.152 412.414V418H185.706V412.406C185.701 411.797 185.56 411.346 185.284 411.055C185.014 410.763 184.589 410.617 184.011 410.617C183.542 410.617 183.131 410.742 182.777 410.992C182.422 411.242 182.146 411.57 181.948 411.977V418H180.503V409.547H181.87ZM192.989 418.156C191.843 418.156 190.911 417.781 190.192 417.031C189.473 416.276 189.114 415.268 189.114 414.008V413.742C189.114 412.904 189.273 412.156 189.591 411.5C189.914 410.839 190.361 410.323 190.934 409.953C191.512 409.578 192.137 409.391 192.809 409.391C193.908 409.391 194.762 409.753 195.372 410.477C195.981 411.201 196.286 412.237 196.286 413.586V414.188H190.559C190.58 415.021 190.822 415.695 191.286 416.211C191.755 416.721 192.348 416.977 193.067 416.977C193.578 416.977 194.01 416.872 194.364 416.664C194.718 416.456 195.028 416.18 195.294 415.836L196.177 416.523C195.468 417.612 194.406 418.156 192.989 418.156ZM192.809 410.578C192.226 410.578 191.736 410.792 191.341 411.219C190.945 411.641 190.7 412.234 190.606 413H194.841V412.891C194.799 412.156 194.601 411.589 194.247 411.188C193.893 410.781 193.414 410.578 192.809 410.578ZM203.602 409.547L203.648 410.609C204.294 409.797 205.138 409.391 206.18 409.391C207.966 409.391 208.867 410.398 208.883 412.414V418H207.438V412.406C207.432 411.797 207.292 411.346 207.016 411.055C206.745 410.763 206.32 410.617 205.742 410.617C205.273 410.617 204.862 410.742 204.508 410.992C204.154 411.242 203.878 411.57 203.68 411.977V418H202.234V409.547H203.602ZM216.431 417.164C215.869 417.826 215.043 418.156 213.955 418.156C213.054 418.156 212.366 417.896 211.892 417.375C211.423 416.849 211.186 416.073 211.181 415.047V409.547H212.627V415.008C212.627 416.289 213.147 416.93 214.189 416.93C215.293 416.93 216.028 416.518 216.392 415.695V409.547H217.837V418H216.462L216.431 417.164ZM221.55 409.547L221.589 410.484C222.209 409.755 223.045 409.391 224.097 409.391C225.279 409.391 226.084 409.844 226.511 410.75C226.792 410.344 227.157 410.016 227.605 409.766C228.058 409.516 228.592 409.391 229.206 409.391C231.06 409.391 232.003 410.372 232.034 412.336V418H230.589V412.422C230.589 411.818 230.451 411.367 230.175 411.07C229.899 410.768 229.435 410.617 228.784 410.617C228.248 410.617 227.803 410.779 227.448 411.102C227.094 411.419 226.889 411.849 226.831 412.391V418H225.378V412.461C225.378 411.232 224.777 410.617 223.573 410.617C222.626 410.617 221.977 411.021 221.628 411.828V418H220.183V409.547H221.55ZM241.528 413.867C241.528 415.159 241.231 416.198 240.637 416.984C240.044 417.766 239.247 418.156 238.247 418.156C237.179 418.156 236.354 417.779 235.77 417.023L235.7 418H234.372V406H235.817V410.477C236.401 409.753 237.205 409.391 238.231 409.391C239.257 409.391 240.062 409.779 240.645 410.555C241.234 411.331 241.528 412.393 241.528 413.742V413.867ZM240.083 413.703C240.083 412.719 239.893 411.958 239.512 411.422C239.132 410.885 238.585 410.617 237.872 410.617C236.919 410.617 236.234 411.06 235.817 411.945V415.602C236.26 416.487 236.95 416.93 237.887 416.93C238.58 416.93 239.119 416.661 239.505 416.125C239.89 415.589 240.083 414.781 240.083 413.703ZM247.014 418.156C245.868 418.156 244.936 417.781 244.217 417.031C243.498 416.276 243.139 415.268 243.139 414.008V413.742C243.139 412.904 243.298 412.156 243.616 411.5C243.939 410.839 244.386 410.323 244.959 409.953C245.538 409.578 246.163 409.391 246.834 409.391C247.933 409.391 248.788 409.753 249.397 410.477C250.006 411.201 250.311 412.237 250.311 413.586V414.188H244.584C244.605 415.021 244.847 415.695 245.311 416.211C245.78 416.721 246.373 416.977 247.092 416.977C247.603 416.977 248.035 416.872 248.389 416.664C248.743 416.456 249.053 416.18 249.319 415.836L250.202 416.523C249.493 417.612 248.431 418.156 247.014 418.156ZM246.834 410.578C246.251 410.578 245.761 410.792 245.366 411.219C244.97 411.641 244.725 412.234 244.631 413H248.866V412.891C248.824 412.156 248.626 411.589 248.272 411.188C247.918 410.781 247.439 410.578 246.834 410.578ZM256.227 410.844C256.008 410.807 255.771 410.789 255.516 410.789C254.568 410.789 253.924 411.193 253.586 412V418H252.141V409.547H253.547L253.57 410.523C254.044 409.768 254.716 409.391 255.586 409.391C255.867 409.391 256.081 409.427 256.227 409.5V410.844Z" fill="#757575"/>
<path d="M46 386H366V384H46V386ZM369 389V437H371V389H369ZM366 440H46V442H366V440ZM43 437V389H41V437H43ZM46 440C44.3431 440 43 438.657 43 437H41C41 439.761 43.2386 442 46 442V440ZM369 437C369 438.657 367.657 440 366 440V442C368.761 442 371 439.761 371 437H369ZM366 386C367.657 386 369 387.343 369 389H371C371 386.239 368.761 384 366 384V386ZM46 384C43.2386 384 41 386.239 41 389H43C43 387.343 44.3431 386 46 386V384Z" fill="#020202"/>
<path d="M42 229C42 226.791 43.7909 225 46 225H366C368.209 225 370 226.791 370 229V361C370 363.209 368.209 365 366 365H46C43.7909 365 42 363.209 42 361V229Z" fill="white"/>
<path d="M59.3203 258V246.625H62.5312C63.5208 246.625 64.3958 246.844 65.1562 247.281C65.9167 247.719 66.5026 248.341 66.9141 249.148C67.3307 249.956 67.5417 250.883 67.5469 251.93V252.656C67.5469 253.729 67.3385 254.669 66.9219 255.477C66.5104 256.284 65.9193 256.904 65.1484 257.336C64.3828 257.768 63.4896 257.99 62.4688 258H59.3203ZM60.8203 247.859V256.773H62.3984C63.5547 256.773 64.4531 256.414 65.0938 255.695C65.7396 254.977 66.0625 253.953 66.0625 252.625V251.961C66.0625 250.669 65.7578 249.667 65.1484 248.953C64.5443 248.234 63.6849 247.87 62.5703 247.859H60.8203ZM73.2516 258.156C72.1057 258.156 71.1734 257.781 70.4547 257.031C69.7359 256.276 69.3766 255.268 69.3766 254.008V253.742C69.3766 252.904 69.5354 252.156 69.8531 251.5C70.176 250.839 70.624 250.323 71.1969 249.953C71.775 249.578 72.4 249.391 73.0719 249.391C74.1708 249.391 75.025 249.753 75.6344 250.477C76.2437 251.201 76.5484 252.237 76.5484 253.586V254.188H70.8219C70.8427 255.021 71.0849 255.695 71.5484 256.211C72.0172 256.721 72.6109 256.977 73.3297 256.977C73.8401 256.977 74.2724 256.872 74.6266 256.664C74.9807 256.456 75.2906 256.18 75.5562 255.836L76.4391 256.523C75.7307 257.612 74.6682 258.156 73.2516 258.156ZM73.0719 250.578C72.4885 250.578 71.999 250.792 71.6031 251.219C71.2073 251.641 70.9625 252.234 70.8687 253H75.1031V252.891C75.0615 252.156 74.8635 251.589 74.5094 251.188C74.1552 250.781 73.676 250.578 73.0719 250.578ZM83.3 255.758C83.3 255.367 83.1516 255.065 82.8547 254.852C82.563 254.633 82.05 254.445 81.3156 254.289C80.5865 254.133 80.0057 253.945 79.5734 253.727C79.1464 253.508 78.8286 253.247 78.6203 252.945C78.4172 252.643 78.3156 252.284 78.3156 251.867C78.3156 251.174 78.6073 250.589 79.1906 250.109C79.7792 249.63 80.5292 249.391 81.4406 249.391C82.399 249.391 83.175 249.638 83.7687 250.133C84.3677 250.628 84.6672 251.26 84.6672 252.031H83.2141C83.2141 251.635 83.0448 251.294 82.7062 251.008C82.3729 250.721 81.951 250.578 81.4406 250.578C80.9146 250.578 80.5031 250.693 80.2062 250.922C79.9094 251.151 79.7609 251.451 79.7609 251.82C79.7609 252.169 79.899 252.432 80.175 252.609C80.451 252.786 80.9484 252.956 81.6672 253.117C82.3911 253.279 82.9771 253.471 83.425 253.695C83.8729 253.919 84.2036 254.19 84.4172 254.508C84.6359 254.82 84.7453 255.203 84.7453 255.656C84.7453 256.411 84.4432 257.018 83.8391 257.477C83.2349 257.93 82.451 258.156 81.4875 258.156C80.8104 258.156 80.2115 258.036 79.6906 257.797C79.1698 257.557 78.7609 257.224 78.4641 256.797C78.1724 256.365 78.0266 255.898 78.0266 255.398H79.4719C79.4979 255.883 79.6906 256.268 80.05 256.555C80.4146 256.836 80.8937 256.977 81.4875 256.977C82.0344 256.977 82.4719 256.867 82.8 256.648C83.1333 256.424 83.3 256.128 83.3 255.758ZM90.1688 256.977C90.6844 256.977 91.1349 256.82 91.5203 256.508C91.9057 256.195 92.1193 255.805 92.1609 255.336H93.5281C93.5021 255.82 93.3354 256.281 93.0281 256.719C92.7208 257.156 92.3094 257.505 91.7938 257.766C91.2833 258.026 90.7417 258.156 90.1688 258.156C89.0177 258.156 88.101 257.773 87.4188 257.008C86.7417 256.237 86.4031 255.185 86.4031 253.852V253.609C86.4031 252.786 86.5542 252.055 86.8563 251.414C87.1583 250.773 87.5906 250.276 88.1531 249.922C88.7208 249.568 89.3901 249.391 90.1609 249.391C91.1089 249.391 91.8953 249.674 92.5203 250.242C93.1505 250.81 93.4865 251.547 93.5281 252.453H92.1609C92.1193 251.906 91.9109 251.458 91.5359 251.109C91.1661 250.755 90.7078 250.578 90.1609 250.578C89.4266 250.578 88.8563 250.844 88.45 251.375C88.049 251.901 87.8484 252.664 87.8484 253.664V253.938C87.8484 254.911 88.049 255.661 88.45 256.188C88.851 256.714 89.424 256.977 90.1688 256.977ZM99.3891 250.844C99.1703 250.807 98.9333 250.789 98.6781 250.789C97.7302 250.789 97.087 251.193 96.7484 252V258H95.3031V249.547H96.7094L96.7328 250.523C97.2068 249.768 97.8786 249.391 98.7484 249.391C99.0297 249.391 99.2432 249.427 99.3891 249.5V250.844ZM102.445 258H101V249.547H102.445V258ZM100.883 247.305C100.883 247.07 100.953 246.872 101.094 246.711C101.24 246.549 101.453 246.469 101.734 246.469C102.016 246.469 102.229 246.549 102.375 246.711C102.521 246.872 102.594 247.07 102.594 247.305C102.594 247.539 102.521 247.734 102.375 247.891C102.229 248.047 102.016 248.125 101.734 248.125C101.453 248.125 101.24 248.047 101.094 247.891C100.953 247.734 100.883 247.539 100.883 247.305ZM112.056 253.867C112.056 255.154 111.762 256.19 111.173 256.977C110.585 257.763 109.788 258.156 108.783 258.156C107.757 258.156 106.949 257.831 106.361 257.18V261.25H104.916V249.547H106.236L106.306 250.484C106.895 249.755 107.713 249.391 108.759 249.391C109.775 249.391 110.577 249.773 111.166 250.539C111.759 251.305 112.056 252.37 112.056 253.734V253.867ZM110.611 253.703C110.611 252.75 110.408 251.997 110.002 251.445C109.595 250.893 109.038 250.617 108.33 250.617C107.455 250.617 106.798 251.005 106.361 251.781V255.82C106.793 256.591 107.455 256.977 108.345 256.977C109.038 256.977 109.588 256.703 109.994 256.156C110.405 255.604 110.611 254.786 110.611 253.703ZM116.011 247.5V249.547H117.589V250.664H116.011V255.906C116.011 256.245 116.081 256.5 116.222 256.672C116.362 256.839 116.602 256.922 116.941 256.922C117.107 256.922 117.336 256.891 117.628 256.828V258C117.248 258.104 116.878 258.156 116.519 258.156C115.873 258.156 115.386 257.961 115.058 257.57C114.73 257.18 114.566 256.625 114.566 255.906V250.664H113.027V249.547H114.566V247.5H116.011ZM121.005 258H119.559V249.547H121.005V258ZM119.442 247.305C119.442 247.07 119.513 246.872 119.653 246.711C119.799 246.549 120.013 246.469 120.294 246.469C120.575 246.469 120.789 246.549 120.934 246.711C121.08 246.872 121.153 247.07 121.153 247.305C121.153 247.539 121.08 247.734 120.934 247.891C120.789 248.047 120.575 248.125 120.294 248.125C120.013 248.125 119.799 248.047 119.653 247.891C119.513 247.734 119.442 247.539 119.442 247.305ZM123.092 253.695C123.092 252.867 123.254 252.122 123.577 251.461C123.905 250.799 124.358 250.289 124.936 249.93C125.519 249.57 126.183 249.391 126.928 249.391C128.079 249.391 129.009 249.789 129.717 250.586C130.431 251.383 130.787 252.443 130.787 253.766V253.867C130.787 254.69 130.629 255.43 130.311 256.086C129.998 256.737 129.548 257.245 128.959 257.609C128.376 257.974 127.704 258.156 126.944 258.156C125.798 258.156 124.868 257.758 124.155 256.961C123.446 256.164 123.092 255.109 123.092 253.797V253.695ZM124.545 253.867C124.545 254.805 124.761 255.557 125.194 256.125C125.631 256.693 126.215 256.977 126.944 256.977C127.678 256.977 128.261 256.69 128.694 256.117C129.126 255.539 129.342 254.732 129.342 253.695C129.342 252.768 129.121 252.018 128.678 251.445C128.241 250.867 127.657 250.578 126.928 250.578C126.215 250.578 125.639 250.862 125.202 251.43C124.764 251.997 124.545 252.81 124.545 253.867ZM134.117 249.547L134.164 250.609C134.81 249.797 135.654 249.391 136.695 249.391C138.482 249.391 139.383 250.398 139.398 252.414V258H137.953V252.406C137.948 251.797 137.807 251.346 137.531 251.055C137.26 250.763 136.836 250.617 136.258 250.617C135.789 250.617 135.378 250.742 135.023 250.992C134.669 251.242 134.393 251.57 134.195 251.977V258H132.75V249.547H134.117ZM145.464 253.695C145.464 252.867 145.626 252.122 145.948 251.461C146.277 250.799 146.73 250.289 147.308 249.93C147.891 249.57 148.555 249.391 149.3 249.391C150.451 249.391 151.381 249.789 152.089 250.586C152.803 251.383 153.159 252.443 153.159 253.766V253.867C153.159 254.69 153.001 255.43 152.683 256.086C152.37 256.737 151.92 257.245 151.331 257.609C150.748 257.974 150.076 258.156 149.316 258.156C148.17 258.156 147.24 257.758 146.527 256.961C145.818 256.164 145.464 255.109 145.464 253.797V253.695ZM146.917 253.867C146.917 254.805 147.133 255.557 147.566 256.125C148.003 256.693 148.586 256.977 149.316 256.977C150.05 256.977 150.633 256.69 151.066 256.117C151.498 255.539 151.714 254.732 151.714 253.695C151.714 252.768 151.493 252.018 151.05 251.445C150.613 250.867 150.029 250.578 149.3 250.578C148.586 250.578 148.011 250.862 147.573 251.43C147.136 251.997 146.917 252.81 146.917 253.867ZM155.833 258V250.664H154.497V249.547H155.833V248.68C155.833 247.773 156.075 247.073 156.559 246.578C157.044 246.083 157.729 245.836 158.614 245.836C158.947 245.836 159.278 245.88 159.606 245.969L159.528 247.141C159.283 247.094 159.023 247.07 158.747 247.07C158.278 247.07 157.916 247.208 157.661 247.484C157.406 247.755 157.278 248.146 157.278 248.656V249.547H159.083V250.664H157.278V258H155.833ZM169.039 250.844C168.82 250.807 168.583 250.789 168.328 250.789C167.38 250.789 166.737 251.193 166.398 252V258H164.953V249.547H166.359L166.383 250.523C166.857 249.768 167.529 249.391 168.398 249.391C168.68 249.391 168.893 249.427 169.039 249.5V250.844ZM173.877 258.156C172.731 258.156 171.798 257.781 171.08 257.031C170.361 256.276 170.002 255.268 170.002 254.008V253.742C170.002 252.904 170.16 252.156 170.478 251.5C170.801 250.839 171.249 250.323 171.822 249.953C172.4 249.578 173.025 249.391 173.697 249.391C174.796 249.391 175.65 249.753 176.259 250.477C176.869 251.201 177.173 252.237 177.173 253.586V254.188H171.447C171.468 255.021 171.71 255.695 172.173 256.211C172.642 256.721 173.236 256.977 173.955 256.977C174.465 256.977 174.897 256.872 175.252 256.664C175.606 256.456 175.916 256.18 176.181 255.836L177.064 256.523C176.356 257.612 175.293 258.156 173.877 258.156ZM173.697 250.578C173.114 250.578 172.624 250.792 172.228 251.219C171.832 251.641 171.588 252.234 171.494 253H175.728V252.891C175.686 252.156 175.489 251.589 175.134 251.188C174.78 250.781 174.301 250.578 173.697 250.578ZM178.652 253.703C178.652 252.375 178.956 251.326 179.566 250.555C180.175 249.779 180.993 249.391 182.019 249.391C183.019 249.391 183.808 249.727 184.386 250.398L184.448 249.547H185.777V261.25H184.331V257.219C183.748 257.844 182.972 258.156 182.003 258.156C180.982 258.156 180.167 257.76 179.558 256.969C178.954 256.172 178.652 255.117 178.652 253.805V253.703ZM180.097 253.867C180.097 254.836 180.3 255.596 180.706 256.148C181.118 256.701 181.67 256.977 182.363 256.977C183.222 256.977 183.878 256.596 184.331 255.836V251.695C183.873 250.951 183.222 250.578 182.378 250.578C181.68 250.578 181.126 250.857 180.714 251.414C180.303 251.966 180.097 252.784 180.097 253.867ZM193.466 257.164C192.903 257.826 192.078 258.156 190.989 258.156C190.088 258.156 189.401 257.896 188.927 257.375C188.458 256.849 188.221 256.073 188.216 255.047V249.547H189.661V255.008C189.661 256.289 190.182 256.93 191.223 256.93C192.328 256.93 193.062 256.518 193.427 255.695V249.547H194.872V258H193.497L193.466 257.164ZM200.733 258.156C199.587 258.156 198.655 257.781 197.936 257.031C197.217 256.276 196.858 255.268 196.858 254.008V253.742C196.858 252.904 197.017 252.156 197.334 251.5C197.657 250.839 198.105 250.323 198.678 249.953C199.256 249.578 199.881 249.391 200.553 249.391C201.652 249.391 202.506 249.753 203.116 250.477C203.725 251.201 204.03 252.237 204.03 253.586V254.188H198.303C198.324 255.021 198.566 255.695 199.03 256.211C199.498 256.721 200.092 256.977 200.811 256.977C201.321 256.977 201.754 256.872 202.108 256.664C202.462 256.456 202.772 256.18 203.038 255.836L203.92 256.523C203.212 257.612 202.149 258.156 200.733 258.156ZM200.553 250.578C199.97 250.578 199.48 250.792 199.084 251.219C198.689 251.641 198.444 252.234 198.35 253H202.584V252.891C202.543 252.156 202.345 251.589 201.991 251.188C201.636 250.781 201.157 250.578 200.553 250.578ZM210.781 255.758C210.781 255.367 210.633 255.065 210.336 254.852C210.044 254.633 209.531 254.445 208.797 254.289C208.068 254.133 207.487 253.945 207.055 253.727C206.628 253.508 206.31 253.247 206.102 252.945C205.898 252.643 205.797 252.284 205.797 251.867C205.797 251.174 206.089 250.589 206.672 250.109C207.26 249.63 208.01 249.391 208.922 249.391C209.88 249.391 210.656 249.638 211.25 250.133C211.849 250.628 212.148 251.26 212.148 252.031H210.695C210.695 251.635 210.526 251.294 210.188 251.008C209.854 250.721 209.432 250.578 208.922 250.578C208.396 250.578 207.984 250.693 207.688 250.922C207.391 251.151 207.242 251.451 207.242 251.82C207.242 252.169 207.38 252.432 207.656 252.609C207.932 252.786 208.43 252.956 209.148 253.117C209.872 253.279 210.458 253.471 210.906 253.695C211.354 253.919 211.685 254.19 211.898 254.508C212.117 254.82 212.227 255.203 212.227 255.656C212.227 256.411 211.924 257.018 211.32 257.477C210.716 257.93 209.932 258.156 208.969 258.156C208.292 258.156 207.693 258.036 207.172 257.797C206.651 257.557 206.242 257.224 205.945 256.797C205.654 256.365 205.508 255.898 205.508 255.398H206.953C206.979 255.883 207.172 256.268 207.531 256.555C207.896 256.836 208.375 256.977 208.969 256.977C209.516 256.977 209.953 256.867 210.281 256.648C210.615 256.424 210.781 256.128 210.781 255.758ZM216.22 247.5V249.547H217.798V250.664H216.22V255.906C216.22 256.245 216.291 256.5 216.431 256.672C216.572 256.839 216.811 256.922 217.15 256.922C217.317 256.922 217.546 256.891 217.837 256.828V258C217.457 258.104 217.087 258.156 216.728 258.156C216.082 258.156 215.595 257.961 215.267 257.57C214.939 257.18 214.775 256.625 214.775 255.906V250.664H213.236V249.547H214.775V247.5H216.22Z" fill="#757575"/>
<path d="M46 226H366V224H46V226ZM369 229V361H371V229H369ZM366 364H46V366H366V364ZM43 361V229H41V361H43ZM46 364C44.3431 364 43 362.657 43 361H41C41 363.761 43.2386 366 46 366V364ZM369 361C369 362.657 367.657 364 366 364V366C368.761 366 371 363.761 371 361H369ZM366 226C367.657 226 369 227.343 369 229H371C371 226.239 368.761 224 366 224V226ZM46 224C43.2386 224 41 226.239 41 229H43C43 227.343 44.3431 226 46 226V224Z" fill="#020202"/>
</svg>
